<?xml version="1.0" encoding="UTF-8"?>
<!DOCTYPE svg PUBLIC "-//W3C//DTD SVG 1.1//EN" "http://www.w3.org/Graphics/SVG/1.1/DTD/svg11.dtd">
<svg xmlns="http://www.w3.org/2000/svg" version="1.1" width="1632px" height="1631px" style="shape-rendering:geometricPrecision; text-rendering:geometricPrecision; image-rendering:optimizeQuality; fill-rule:evenodd; clip-rule:evenodd" xmlns:xlink="http://www.w3.org/1999/xlink">
<g><path style="opacity:0.902" fill="#2405d8" d="M 804.5,-0.5 C 808.167,-0.5 811.833,-0.5 815.5,-0.5C 816.972,10.0031 820.639,19.6698 826.5,28.5C 830.5,31 834.5,33.5 838.5,36C 850.236,37.9228 861.903,39.9228 873.5,42C 877.486,43.9431 878.153,46.6098 875.5,50C 862.776,52.2953 850.109,54.9619 837.5,58C 833.071,60.1023 828.905,62.6023 825,65.5C 823.676,70.791 821.176,75.4577 817.5,79.5C 818.939,81.3432 818.772,83.0099 817,84.5C 816.693,89.8819 816.026,95.2152 815,100.5C 811.911,102.718 811.911,105.051 815,107.5C 815.029,110.031 814.196,112.364 812.5,114.5C 810.629,115.767 808.796,115.767 807,114.5C 806.5,135.164 806.333,155.831 806.5,176.5C 902.984,176.901 993.984,199.068 1079.5,243C 1088.52,240.175 1094.52,243.175 1097.5,252C 1222.62,322.95 1312.95,424.784 1368.5,557.5C 1386.38,561.147 1404.05,565.647 1421.5,571C 1476.78,591.178 1488.28,626.012 1456,675.5C 1443.07,692.094 1427.91,706.261 1410.5,718C 1410.08,726.115 1410.58,734.281 1412,742.5C 1412.62,757.663 1413.12,772.829 1413.5,788C 1413.05,813.231 1411.88,838.398 1410,863.5C 1416.23,869.028 1422.73,874.194 1429.5,879C 1443.46,891.959 1455.62,906.459 1466,922.5C 1475.87,941.806 1474.53,960.14 1462,977.5C 1452.37,988.562 1440.87,997.062 1427.5,1003C 1409,1011.12 1389.67,1016.12 1369.5,1018C 1311.11,1156.39 1215.77,1261.06 1083.5,1332C 1066.24,1340.79 1048.57,1348.79 1030.5,1356C 1027.92,1362.75 1023.42,1364.58 1017,1361.5C 949.803,1386.73 880.303,1399.73 808.5,1400.5C 808.5,1421.5 808.5,1442.5 808.5,1463.5C 829.966,1467.13 843.8,1479.46 850,1500.5C 853.051,1515.16 850.717,1528.82 843,1541.5C 841.556,1543.16 839.722,1543.82 837.5,1543.5C 839.776,1527 834.11,1514.17 820.5,1505C 803.396,1496.1 787.896,1498.26 774,1511.5C 766.549,1520.84 763.383,1531.34 764.5,1543C 763.5,1543.67 762.5,1543.67 761.5,1543C 747.718,1523.62 747.218,1503.79 760,1483.5C 768.56,1471.8 780.06,1465.14 794.5,1463.5C 795.833,1403.5 795.833,1343.5 794.5,1283.5C 764.554,1282.14 736.22,1274.64 709.5,1261C 681.82,1245.34 656.986,1225.84 635,1202.5C 626.789,1193.29 618.956,1183.79 611.5,1174C 541.903,1139.24 485.57,1089.41 442.5,1024.5C 440.667,1024.17 438.833,1023.83 437,1023.5C 380.536,1028.11 324.036,1028.61 267.5,1025C 243.229,1022.55 219.229,1018.55 195.5,1013C 178.806,1008.32 163.473,1000.98 149.5,991C 125.521,969.257 121.688,944.424 138,916.5C 149.774,900.726 162.941,886.226 177.5,873C 195,858.835 213.333,845.835 232.5,834C 259.179,818.659 286.179,803.826 313.5,789.5C 279.75,772.127 247.084,752.96 215.5,732C 204.167,723.333 192.833,714.667 181.5,706C 171.054,696.221 160.887,686.054 151,675.5C 142.265,664.362 135.931,652.029 132,638.5C 129.358,614.283 138.525,596.117 159.5,584C 178.072,574.364 197.739,567.698 218.5,564C 253.385,557.986 288.552,555.486 324,556.5C 359.612,556.197 395.112,557.864 430.5,561.5C 432.833,561.167 435.167,560.833 437.5,560.5C 480.348,491.496 538.348,438.996 611.5,403C 642.527,358.986 682.86,326.32 732.5,305C 752.804,297.439 773.804,293.273 795.5,292.5C 795.557,220.829 794.891,148.829 793.5,76.5C 789.719,76.974 786.552,78.6407 784,81.5C 782.5,85.3333 781,89.1667 779.5,93C 779.833,94 780.167,95 780.5,96C 778.743,100.159 777.91,104.325 778,108.5C 775.568,109.45 773.068,109.45 770.5,108.5C 770.297,106.61 770.963,105.11 772.5,104C 771.086,95.9915 768.919,88.1581 766,80.5C 758.851,75.9987 751.017,73.4987 742.5,73C 740.5,72.3333 738.5,71.6667 736.5,71C 735.14,69.0624 735.473,67.3957 737.5,66C 747.047,65.6886 756.047,63.3552 764.5,59C 766.441,57.1841 767.108,55.1841 766.5,53C 763.641,52.447 760.808,52.6137 758,53.5C 752.707,52.402 747.54,50.902 742.5,49C 739.385,44.9656 740.385,42.2989 745.5,41C 753.538,40.263 761.538,39.263 769.5,38C 771.62,35.5913 773.62,33.0913 775.5,30.5C 777.167,31.5 778.5,32.8333 779.5,34.5C 783.36,33.1125 787.026,31.2791 790.5,29C 793.919,24.5857 796.919,19.919 799.5,15C 798.507,12.5472 798.34,10.0472 799,7.5C 801.399,5.13976 803.233,2.47309 804.5,-0.5 Z M 806.5,184.5 C 901.946,185.196 991.946,207.196 1076.5,250.5C 1079.23,259.701 1085.23,262.867 1094.5,260C 1215.8,328.903 1304.13,427.736 1359.5,556.5C 1354.97,557.925 1350.8,557.258 1347,554.5C 1279.99,404.494 1170.49,297.994 1018.5,235C 953.161,210.166 885.495,196.666 815.5,194.5C 812.794,194.481 810.294,195.148 808,196.5C 806.576,192.703 806.076,188.703 806.5,184.5 Z M 806.5,203.5 C 984.248,207.973 1131.41,276.639 1248,409.5C 1284.68,453.532 1314.85,501.698 1338.5,554C 1303.84,553.446 1269.18,553.446 1234.5,554C 1211.79,555.673 1189.13,557.506 1166.5,559.5C 1127.09,498.256 1075.75,449.422 1012.5,413C 1004.5,409 996.5,405 988.5,401C 969.527,376.694 947.86,355.027 923.5,336C 889.484,309.819 850.818,295.319 807.5,292.5C 808.917,286.58 808.584,280.747 806.5,275C 806.354,272.966 807.02,271.299 808.5,270C 808,269.5 807.5,269 807,268.5C 806.982,246.695 806.815,225.028 806.5,203.5 Z M 793.5,300.5 C 794.497,300.47 795.164,300.97 795.5,302C 795.185,320.787 795.185,339.62 795.5,358.5C 745.857,359.029 697.857,368.029 651.5,385.5C 649.909,382.405 647.743,379.738 645,377.5C 647.108,373.203 650.275,369.536 654.5,366.5C 656.984,368.483 659.317,370.65 661.5,373C 665.977,373.165 667.477,370.998 666,366.5C 664.167,364.667 662.333,362.833 660.5,361C 663.167,358.333 665.833,355.667 668.5,353C 669.759,352.018 671.092,351.685 672.5,352C 677.021,357.02 681.355,362.187 685.5,367.5C 689.461,369.036 691.294,367.702 691,363.5C 687.909,358.986 684.575,354.653 681,350.5C 679.711,348.945 679.044,347.279 679,345.5C 682.33,342.339 685.996,339.672 690,337.5C 692.307,339.439 694.14,341.772 695.5,344.5C 698.782,346.174 700.782,345.174 701.5,341.5C 699.988,339.139 698.654,336.639 697.5,334C 697.735,333.127 698.069,332.293 698.5,331.5C 702.445,329.397 706.278,327.063 710,324.5C 711.333,327.167 712.667,329.833 714,332.5C 717.491,335.446 719.658,334.612 720.5,330C 719.964,326.928 718.63,324.261 716.5,322C 720.92,319.357 725.586,317.191 730.5,315.5C 732.388,317.794 733.722,320.461 734.5,323.5C 737.775,325.214 740.108,324.381 741.5,321C 739.269,318.252 738.269,315.085 738.5,311.5C 743.595,310.448 748.595,309.115 753.5,307.5C 752.925,312.069 754.425,315.735 758,318.5C 760.167,317.667 761.667,316.167 762.5,314C 760.821,311.435 760.154,308.602 760.5,305.5C 765.352,304.452 770.185,303.452 775,302.5C 775.333,304.833 775.667,307.167 776,309.5C 777.259,313.223 779.592,314.223 783,312.5C 783.784,309.24 783.617,306.073 782.5,303C 786.241,301.986 789.907,301.153 793.5,300.5 Z M 967.5,390.5 C 923.612,373.38 878.112,362.713 831,358.5C 823.22,358.819 815.386,358.819 807.5,358.5C 807.333,339.164 807.5,319.83 808,300.5C 841.507,303.447 872.674,313.613 901.5,331C 922.718,344.536 941.885,360.703 959,379.5C 962.073,383.061 964.906,386.728 967.5,390.5 Z M 790.5,366.5 C 792.167,366.5 793.833,366.5 795.5,366.5C 795.813,373.755 795.48,380.921 794.5,388C 729.256,389.101 668.09,405.268 611,436.5C 608.035,434.276 605.202,431.942 602.5,429.5C 605.167,425.671 608,422.005 611,418.5C 613.498,420.417 616.165,422.084 619,423.5C 622.205,422.202 623.205,419.868 622,416.5C 620.581,415.54 619.081,414.707 617.5,414C 615.993,413.163 615.493,411.996 616,410.5C 620.353,408.133 624.687,405.8 629,403.5C 630.466,405.325 632.299,405.825 634.5,405C 635.13,403.108 636.13,401.441 637.5,400C 686.444,379.179 737.444,368.012 790.5,366.5 Z M 808.5,366.5 C 919.822,369.697 1015.49,409.364 1095.5,485.5C 1090.27,490.306 1085.27,495.306 1080.5,500.5C 1016.92,439.655 941.248,403.155 853.5,391C 838.896,389.131 824.229,388.131 809.5,388C 808.52,380.921 808.187,373.755 808.5,366.5 Z M 638.5,382.5 C 640.63,384.127 642.63,385.96 644.5,388C 641.554,388.806 638.888,390.139 636.5,392C 634.179,392.837 631.845,393.17 629.5,393C 632.365,389.308 635.365,385.808 638.5,382.5 Z M 776.5,401.5 C 912.558,397.007 1023.22,447.007 1108.5,551.5C 1167.39,628.845 1193.73,716.345 1187.5,814C 1185.56,814.813 1183.56,815.313 1181.5,815.5C 1186.65,680.293 1136.98,570.459 1032.5,486C 924.178,407.822 805.845,388.822 677.5,429C 645.822,440.589 615.988,455.756 588,474.5C 586.559,473.13 584.892,472.13 583,471.5C 582.493,470.004 582.993,468.837 584.5,468C 642.709,429.429 706.709,407.262 776.5,401.5 Z M 1015.5,877.5 C 1015.17,877.5 1014.83,877.5 1014.5,877.5C 1007.92,868.96 1003.76,859.294 1002,848.5C 1000.78,836.853 1000.45,825.186 1001,813.5C 1002.82,805.554 1004.32,797.554 1005.5,789.5C 1006.42,788.697 1007.42,788.53 1008.5,789C 1009.21,791.589 1010.54,793.755 1012.5,795.5C 1014.01,794.009 1015.01,792.176 1015.5,790C 1018.42,789.592 1020.75,788.259 1022.5,786C 1020.45,784.319 1018.29,782.819 1016,781.5C 1015.78,777.467 1013.95,776.134 1010.5,777.5C 1015.66,760.552 1018.82,743.219 1020,725.5C 1028.5,717.669 1035.5,708.669 1041,698.5C 1044.51,681.305 1048.84,664.305 1054,647.5C 1057.59,615.243 1052.93,584.243 1040,554.5C 1036.53,548.047 1032.7,541.881 1028.5,536C 1033.36,537.204 1038.36,537.537 1043.5,537C 1045.11,535.951 1045.77,534.451 1045.5,532.5C 1031.3,531.137 1021.46,523.804 1016,510.5C 1005.58,497.743 993.079,487.576 978.5,480C 955.819,467.337 931.486,459.837 905.5,457.5C 880.344,458.821 856.01,464.655 832.5,475C 827.306,479.027 821.973,482.86 816.5,486.5C 810.751,483.931 804.751,482.765 798.5,483C 785.367,489.968 775.034,499.801 767.5,512.5C 755.065,524.005 745.565,537.672 739,553.5C 730.268,575.354 726.768,598.02 728.5,621.5C 729.646,633.242 725.646,642.742 716.5,650C 717.93,651.44 719.597,651.774 721.5,651C 728.635,646.85 733.135,640.683 735,632.5C 739.11,643.276 746.11,651.609 756,657.5C 756.483,658.448 756.649,659.448 756.5,660.5C 754.5,660.5 752.5,660.5 750.5,660.5C 748.811,661.931 746.811,662.764 744.5,663C 743.57,664.194 742.903,665.527 742.5,667C 743.598,671.365 745.598,675.198 748.5,678.5C 747.955,680.593 747.122,682.593 746,684.5C 736.44,695.286 728.106,706.953 721,719.5C 712.665,739.111 713.665,758.111 724,776.5C 729.645,782.477 735.645,788.143 742,793.5C 742.667,795.167 742.667,796.833 742,798.5C 737.98,803.409 733.48,807.742 728.5,811.5C 732.738,812.97 736.738,812.47 740.5,810C 744.791,806.548 748.125,802.381 750.5,797.5C 753.896,799.632 757.563,800.965 761.5,801.5C 761.533,817.029 764.366,832.029 770,846.5C 771.979,850.956 774.813,854.79 778.5,858C 784.244,861.204 790.244,863.871 796.5,866C 805.442,873.558 808.108,883.058 804.5,894.5C 803.833,896.167 803.167,897.833 802.5,899.5C 795.625,911.059 788.292,922.392 780.5,933.5C 779.833,933.833 779.167,934.167 778.5,934.5C 741.367,925.273 704.367,915.439 667.5,905C 650.132,898.905 632.465,893.571 614.5,889C 601.562,884.782 588.896,880.282 576.5,875.5C 593.874,873.061 608.707,865.394 621,852.5C 626.735,843.087 632.068,833.421 637,823.5C 638.803,818.59 640.303,813.59 641.5,808.5C 640.833,802.818 641.166,797.151 642.5,791.5C 640.037,784.943 637.87,778.276 636,771.5C 631.24,765.232 627.073,758.566 623.5,751.5C 617.432,746.197 612.432,740.031 608.5,733C 593.781,725.991 578.448,721.158 562.5,718.5C 554.047,719.353 545.714,720.853 537.5,723C 533.888,724.139 530.554,725.806 527.5,728C 524.937,729.079 522.271,729.579 519.5,729.5C 516.518,729.037 513.518,728.704 510.5,728.5C 510.413,723.463 510.746,718.463 511.5,713.5C 514.852,714.553 518.185,714.553 521.5,713.5C 524.276,710.405 523.61,708.238 519.5,707C 517.19,706.503 514.857,706.337 512.5,706.5C 512.413,701.463 512.746,696.463 513.5,691.5C 516.799,692.376 520.132,692.543 523.5,692C 526.167,689.667 526.167,687.333 523.5,685C 520.471,684.461 517.471,683.794 514.5,683C 515.167,678.667 515.833,674.333 516.5,670C 523.505,670.404 530.505,671.238 537.5,672.5C 541.835,670.993 542.502,668.493 539.5,665C 532.487,663.831 525.487,662.664 518.5,661.5C 518.95,656.798 519.617,652.132 520.5,647.5C 523.841,648.005 527.174,648.172 530.5,648C 532.602,646.267 532.935,644.267 531.5,642C 528.828,641.166 526.161,640.332 523.5,639.5C 523.167,638.667 522.833,637.833 522.5,637C 523.869,633.286 524.536,629.453 524.5,625.5C 527.193,625.572 529.86,625.905 532.5,626.5C 536.261,625.633 537.261,623.466 535.5,620C 532.479,619.151 529.479,618.317 526.5,617.5C 527.477,613.118 528.643,608.784 530,604.5C 533.022,603.763 536.022,604.096 539,605.5C 542.258,603.263 542.758,600.763 540.5,598C 538.048,597.71 535.715,597.044 533.5,596C 532.376,590.79 533.376,585.957 536.5,581.5C 538.932,582.4 541.432,583.066 544,583.5C 547.899,581.733 548.399,579.233 545.5,576C 543.187,575.338 540.854,574.838 538.5,574.5C 538.883,569.183 540.383,564.183 543,559.5C 549.432,562.282 556.098,564.615 563,566.5C 567.797,563.421 567.63,560.587 562.5,558C 556.368,556.123 550.368,553.957 544.5,551.5C 546.609,547.396 547.942,543.063 548.5,538.5C 551.686,539.338 554.853,540.338 558,541.5C 561.345,540.281 562.179,538.114 560.5,535C 557.618,533.392 554.618,532.059 551.5,531C 553.67,526.483 555.837,521.983 558,517.5C 560.749,518.351 563.416,519.351 566,520.5C 569.067,519.598 570.067,517.598 569,514.5C 566.333,513.167 563.667,511.833 561,510.5C 561.971,505.001 565.138,501.001 570.5,498.5C 576.485,501.844 578.819,500.177 577.5,493.5C 606.083,470.533 637.75,452.699 672.5,440C 795.638,398.196 910.972,413.529 1018.5,486C 1113.52,556.851 1165.02,651.685 1173,770.5C 1173.57,787.175 1173.41,803.841 1172.5,820.5C 1120.84,841.275 1068.51,860.275 1015.5,877.5 Z M 598.5,418.5 C 599.525,418.897 599.692,419.563 599,420.5C 591.205,431.643 584.205,443.309 578,455.5C 570.434,461.699 562.601,467.532 554.5,473C 543.861,481.582 533.695,490.748 524,500.5C 518.281,495.903 513.114,490.737 508.5,485C 535.859,459.165 565.859,436.998 598.5,418.5 Z M 597.5,437.5 C 599.645,437.738 601.312,438.738 602.5,440.5C 599.427,443.372 596.094,445.038 592.5,445.5C 594.538,443.03 596.205,440.363 597.5,437.5 Z M 575.5,476.5 C 577.645,476.738 579.312,477.738 580.5,479.5C 571.249,488.384 569.582,487.384 575.5,476.5 Z M 561.5,484.5 C 562.043,484.56 562.376,484.893 562.5,485.5C 560.667,489.833 558.833,494.167 557,498.5C 486.721,559.049 443.388,635.049 427,726.5C 422.095,756.324 420.761,786.324 423,816.5C 424.997,820.823 423.83,821.656 419.5,819C 417.185,817.891 415.685,816.057 415,813.5C 410.445,679.532 459.278,569.865 561.5,484.5 Z M 498.5,495.5 C 505.075,499.559 509.908,504.893 513,511.5C 441.499,586.893 404.333,676.893 401.5,781.5C 394.5,781.5 387.5,781.5 380.5,781.5C 383.373,670.825 422.706,575.491 498.5,495.5 Z M 1147.5,548.5 C 1145.7,549.237 1144.03,550.237 1142.5,551.5C 1145.07,552.606 1147.4,552.273 1149.5,550.5C 1150.79,551.29 1151.96,552.29 1153,553.5C 1198.19,622.253 1222.03,697.919 1224.5,780.5C 1217.2,781.497 1209.86,781.831 1202.5,781.5C 1199.53,676.614 1162.2,586.281 1090.5,510.5C 1094.48,504.687 1099.31,499.687 1105,495.5C 1121.25,511.751 1136.08,529.251 1149.5,548C 1148.91,548.464 1148.24,548.631 1147.5,548.5 Z M 547.5,518.5 C 520.227,592.805 504.561,669.471 500.5,748.5C 497.565,751.938 494.399,755.271 491,758.5C 489.248,764.012 486.914,769.346 484,774.5C 482.239,781.233 481.072,788.066 480.5,795C 479.456,814.924 485.122,832.757 497.5,848.5C 475.56,841.594 454.06,833.26 433,823.5C 423.676,708.049 459.01,608.716 539,525.5C 541.839,523.131 544.672,520.797 547.5,518.5 Z M 316.5,564.5 C 344.513,564.299 372.513,564.799 400.5,566C 411.306,566.02 421.972,567.02 432.5,569C 408.207,609.647 391.04,653.147 381,699.5C 377.504,720.798 374.338,742.131 371.5,763.5C 358.536,768.652 345.869,774.318 333.5,780.5C 283.189,757.184 235.856,729.018 191.5,696C 173.848,680.87 161.015,662.37 153,640.5C 151,631.5 151,622.5 153,613.5C 157.146,605.013 163.146,598.013 171,592.5C 193.016,580.783 216.516,573.616 241.5,571C 266.594,568.139 291.594,565.972 316.5,564.5 Z M 1227.5,567.5 C 1237.17,567.5 1246.83,567.5 1256.5,567.5C 1256.85,572.681 1259.68,575.348 1265,575.5C 1269.56,575.608 1272.39,573.441 1273.5,569C 1297.62,568.063 1321.62,569.229 1345.5,572.5C 1363.9,618.103 1375.73,665.437 1381,714.5C 1361.09,728.74 1340.26,741.407 1318.5,752.5C 1314.2,750.745 1310.36,751.411 1307,754.5C 1306.21,756.901 1305.04,759.068 1303.5,761C 1290.83,767 1278.17,773 1265.5,779C 1263.83,779.667 1262.17,779.667 1260.5,779C 1251.32,773.77 1241.65,769.604 1231.5,766.5C 1229.75,733.921 1224.58,701.921 1216,670.5C 1205.07,635.318 1190.9,601.652 1173.5,569.5C 1191.67,569.253 1209.67,568.587 1227.5,567.5 Z M 1354.5,574.5 C 1358.43,573.472 1362.43,573.806 1366.5,575.5C 1377.65,603.341 1386.15,632.007 1392,661.5C 1394.37,674.595 1396.87,687.595 1399.5,700.5C 1396.5,703.325 1393.34,705.992 1390,708.5C 1384,669.892 1375,631.892 1363,594.5C 1360.45,587.655 1357.61,580.989 1354.5,574.5 Z M 1376.5,577.5 C 1393.63,580.155 1409.97,585.322 1425.5,593C 1451.75,610.071 1456.92,632.238 1441,659.5C 1431.78,673.391 1420.44,685.391 1407,695.5C 1400.28,655.291 1390.11,615.957 1376.5,577.5 Z M 1414.5,578.5 C 1416.9,578.259 1418.9,578.926 1420.5,580.5C 1418.21,580.405 1416.21,579.738 1414.5,578.5 Z M 1420.5,580.5 C 1434.78,584.386 1446.94,591.719 1457,602.5C 1464.68,612.547 1467.34,623.88 1465,636.5C 1461.37,651.423 1454.7,664.757 1445,676.5C 1434.26,688.405 1422.43,699.071 1409.5,708.5C 1408.39,707.277 1408.22,705.944 1409,704.5C 1427.25,691.925 1441.58,675.925 1452,656.5C 1463.39,631.126 1458.56,609.293 1437.5,591C 1431.74,587.462 1426.07,583.962 1420.5,580.5 Z M 1031.5,699.5 C 1030.34,704.495 1027.67,708.495 1023.5,711.5C 1026.17,707.492 1028.84,703.492 1031.5,699.5 Z M 1399.5,711.5 C 1400.6,712.601 1400.76,713.934 1400,715.5C 1397.36,717.31 1394.86,719.31 1392.5,721.5C 1391.39,720.277 1391.22,718.944 1392,717.5C 1394.69,715.636 1397.19,713.636 1399.5,711.5 Z M 735.5,719.5 C 735.107,734.657 737.273,749.657 742,764.5C 742.667,769.167 742.667,773.833 742,778.5C 730.041,768.961 725.375,756.627 728,741.5C 730.068,733.944 732.568,726.611 735.5,719.5 Z M 1382.5,723.5 C 1383.93,726.129 1383.26,728.295 1380.5,730C 1362.17,742.325 1343.34,753.825 1324,764.5C 1323.16,761.682 1323.99,759.516 1326.5,758C 1346.4,748.223 1365.06,736.723 1382.5,723.5 Z M 1400.5,725.5 C 1402.14,728.488 1402.97,731.821 1403,735.5C 1404.06,753.157 1404.9,770.824 1405.5,788.5C 1404.89,805.842 1404.05,823.175 1403,840.5C 1402.49,845.889 1401.66,851.223 1400.5,856.5C 1396.8,854.458 1393.8,851.792 1391.5,848.5C 1395.06,811.708 1395.4,774.874 1392.5,738C 1392.67,735.833 1392.83,733.667 1393,731.5C 1395.69,729.636 1398.19,727.636 1400.5,725.5 Z M 1307.5,783.5 C 1303.84,790.31 1305.5,795.477 1312.5,799C 1318.99,799.527 1322.99,796.527 1324.5,790C 1323.35,783.849 1319.68,780.516 1313.5,780C 1337.3,766.6 1360.63,752.433 1383.5,737.5C 1384.31,739.766 1384.81,742.1 1385,744.5C 1385.35,759.006 1385.85,773.506 1386.5,788C 1385.85,802.494 1385.35,816.994 1385,831.5C 1384.87,835.951 1384.2,840.284 1383,844.5C 1353.01,825.086 1321.85,807.586 1289.5,792C 1295.13,788.352 1301.13,785.519 1307.5,783.5 Z M 1305.5,768.5 C 1307.93,768.523 1310.26,769.023 1312.5,770C 1286.18,784.411 1259.35,797.911 1232,810.5C 1231.19,808.098 1231.35,805.765 1232.5,803.5C 1257.23,792.384 1281.56,780.717 1305.5,768.5 Z M 1231.5,772.5 C 1239.56,776.031 1247.56,779.864 1255.5,784C 1248.05,786.891 1240.72,790.058 1233.5,793.5C 1232.43,786.536 1231.76,779.536 1231.5,772.5 Z M 371.5,775.5 C 372.656,782.989 372.822,790.655 372,798.5C 364.121,794.811 356.287,790.977 348.5,787C 356.506,783.664 364.173,779.83 371.5,775.5 Z M 752.5,785.5 C 753.627,786.122 754.627,786.955 755.5,788C 753.511,788.519 752.511,787.686 752.5,785.5 Z M 380.5,795.5 C 387.5,795.5 394.5,795.5 401.5,795.5C 402.266,800.82 402.432,806.154 402,811.5C 395.308,808.212 388.475,805.212 381.5,802.5C 380.526,800.257 380.192,797.924 380.5,795.5 Z M 1202.5,795.5 C 1209.86,795.169 1217.2,795.503 1224.5,796.5C 1222.72,798.232 1220.72,799.732 1218.5,801C 1212.96,802.399 1207.79,804.566 1203,807.5C 1202.5,803.514 1202.33,799.514 1202.5,795.5 Z M 1279.5,796.5 C 1289.25,800.542 1298.58,805.375 1307.5,811C 1303.36,816.314 1303.7,821.314 1308.5,826C 1315.68,829.052 1320.51,826.886 1323,819.5C 1342.59,830.707 1361.75,842.54 1380.5,855C 1381.57,855.739 1382.24,856.739 1382.5,858C 1376.2,908.718 1363.7,957.885 1345,1005.5C 1321.45,1008.45 1297.78,1009.45 1274,1008.5C 1271.03,1005.6 1267.53,1003.6 1263.5,1002.5C 1259.63,1002.6 1256.97,1004.43 1255.5,1008C 1228.79,1007.44 1202.12,1005.94 1175.5,1003.5C 1192.24,972.667 1205.74,940.334 1216,906.5C 1219.76,893.687 1222.76,880.687 1225,867.5C 1227.08,851.421 1229.58,835.421 1232.5,819.5C 1248.52,812.391 1264.19,804.725 1279.5,796.5 Z M 326.5,797.5 C 328.199,797.34 329.866,797.506 331.5,798C 344.892,804.898 358.392,811.398 372,817.5C 377.722,883.018 396.555,944.351 428.5,1001.5C 365.508,1007.88 302.508,1008.05 239.5,1002C 209.575,999.364 183.575,988.031 161.5,968C 148.626,953.357 147.126,937.524 157,920.5C 160.611,914.556 164.611,908.889 169,903.5C 189.613,883.626 211.779,865.793 235.5,850C 265.136,831.087 295.469,813.587 326.5,797.5 Z M 992.5,798.5 C 993.162,800.304 993.495,802.304 993.5,804.5C 993.603,807.037 993.103,809.371 992,811.5C 992.196,807.209 992.363,802.876 992.5,798.5 Z M 1222.5,807.5 C 1223.8,809.693 1223.8,812.027 1222.5,814.5C 1216.04,817.88 1209.37,820.88 1202.5,823.5C 1201.23,821.305 1201.23,819.139 1202.5,817C 1209.37,814.064 1216.04,810.897 1222.5,807.5 Z M 381.5,821.5 C 388.524,824.291 395.524,827.291 402.5,830.5C 409.739,890.587 429.073,946.254 460.5,997.5C 459.975,998.192 459.308,998.692 458.5,999C 451.177,1000.45 443.844,1000.62 436.5,999.5C 410.593,954.169 393.427,905.835 385,854.5C 383.683,843.51 382.516,832.51 381.5,821.5 Z M 1186.5,822.5 C 1188.69,828.684 1186.35,832.017 1179.5,832.5C 1179.7,830.04 1180.37,827.707 1181.5,825.5C 1183.4,824.725 1185.06,823.725 1186.5,822.5 Z M 1221.5,823.5 C 1217.1,887.099 1198.76,946.432 1166.5,1001.5C 1158.38,1002.63 1150.38,1001.96 1142.5,999.5C 1174.56,948.337 1193.89,892.67 1200.5,832.5C 1207.88,830.311 1214.88,827.311 1221.5,823.5 Z M 1033.5,887.5 C 1030.55,886.572 1027.55,885.739 1024.5,885C 1023.94,884.617 1023.61,884.117 1023.5,883.5C 1073.3,867.053 1122.64,849.386 1171.5,830.5C 1171.76,832.792 1171.42,834.959 1170.5,837C 1125.46,855.292 1079.8,872.126 1033.5,887.5 Z M 985.5,842.5 C 983.734,840.229 981.734,838.063 979.5,836C 983.303,836.307 985.303,838.474 985.5,842.5 Z M 418.5,837.5 C 420.746,838.455 423.079,839.122 425.5,839.5C 433.938,895.474 453.272,947.474 483.5,995.5C 479.245,998.662 475.745,997.995 473,993.5C 446.345,949.547 428.345,902.214 419,851.5C 418.501,846.845 418.334,842.179 418.5,837.5 Z M 1182.5,840.5 C 1183.5,840.5 1184.5,840.5 1185.5,840.5C 1178.34,897.482 1159.01,949.982 1127.5,998C 1124.85,998.497 1122.19,998.664 1119.5,998.5C 1149.77,950.726 1169.43,898.726 1178.5,842.5C 1180.03,842.006 1181.36,841.339 1182.5,840.5 Z M 511.5,927.5 C 505.89,925.24 500.223,923.074 494.5,921C 489.167,916.333 483.833,911.667 478.5,907C 476.091,905.293 473.425,904.46 470.5,904.5C 470.337,906.857 470.503,909.19 471,911.5C 473.08,913.993 474.914,916.659 476.5,919.5C 474.744,921.191 474.244,923.191 475,925.5C 477.73,931.293 480.73,936.96 484,942.5C 484.822,944.788 485.489,947.122 486,949.5C 491.8,955.129 496.633,961.462 500.5,968.5C 507.597,972.048 514.93,975.048 522.5,977.5C 523.906,982.059 524.906,986.725 525.5,991.5C 515.303,992.6 505.137,993.933 495,995.5C 493.395,994.899 492.062,993.899 491,992.5C 465.202,952.45 447.202,909.117 437,862.5C 436.391,856.076 435.725,849.743 435,843.5C 457.205,852.964 479.705,861.964 502.5,870.5C 504.015,872.547 504.849,874.881 505,877.5C 506.48,894.299 508.647,910.966 511.5,927.5 Z M 1039.5,988.5 C 1039.06,972.737 1037.56,957.07 1035,941.5C 1030.65,927.627 1025.82,913.96 1020.5,900.5C 1070.6,884.748 1119.76,866.748 1168,846.5C 1168.76,850.337 1168.26,854.004 1166.5,857.5C 1163.09,856.711 1161.09,858.211 1160.5,862C 1160.75,865.082 1162.42,866.582 1165.5,866.5C 1155.45,913.759 1136.78,957.259 1109.5,997C 1086.23,994.21 1062.9,991.377 1039.5,988.5 Z M 1390.5,862.5 C 1394.96,864.625 1397.96,867.959 1399.5,872.5C 1393.22,916.472 1382.39,959.138 1367,1000.5C 1366.61,1001.43 1365.95,1002.09 1365,1002.5C 1361.81,1003.12 1358.65,1003.79 1355.5,1004.5C 1355.17,1004 1354.83,1003.5 1354.5,1003C 1372.14,957.623 1384.14,910.789 1390.5,862.5 Z M 571.5,894.5 C 569.074,895.353 568.24,897.019 569,899.5C 571.344,902.211 573.511,905.044 575.5,908C 586.5,915 597.5,922 608.5,929C 601.366,928.823 594.7,930.489 588.5,934C 579.604,935.912 570.771,938.079 562,940.5C 552.24,937.768 542.406,935.435 532.5,933.5C 532.579,932.07 532.246,930.736 531.5,929.5C 528.156,928.243 524.823,928.243 521.5,929.5C 519.604,924.686 518.604,919.686 518.5,914.5C 525.513,913.498 532.513,912.331 539.5,911C 542.59,907.508 541.923,905.342 537.5,904.5C 530.416,905.34 523.416,906.173 516.5,907C 515.806,902.532 515.14,898.032 514.5,893.5C 517.304,892.695 520.138,892.028 523,891.5C 526.647,888.084 526.147,885.417 521.5,883.5C 518.979,884.785 516.313,885.452 513.5,885.5C 513.058,881.846 512.724,878.179 512.5,874.5C 532.378,880.792 552.044,887.459 571.5,894.5 Z M 1406.5,876.5 C 1422.12,887.286 1435.28,900.619 1446,916.5C 1460.6,943.464 1455.44,965.631 1430.5,983C 1413.49,993.531 1395.16,999.364 1375.5,1000.5C 1390.67,960.331 1401,918.998 1406.5,876.5 Z M 1015.5,886.5 C 1017.5,888.167 1019.5,889.833 1021.5,891.5C 1020.39,891.557 1019.39,891.89 1018.5,892.5C 1017.83,892.5 1017.17,892.5 1016.5,892.5C 1016.11,890.716 1015.44,889.05 1014.5,887.5C 1014.5,886.833 1014.83,886.5 1015.5,886.5 Z M 152.5,911.5 C 150.678,915.145 148.844,918.811 147,922.5C 138.799,943.857 142.966,962.357 159.5,978C 177.867,993.143 198.867,1003.14 222.5,1008C 235.866,1009.5 249.199,1011.17 262.5,1013C 312.851,1015.19 363.184,1014.86 413.5,1012C 419.847,1011.11 426.181,1010.28 432.5,1009.5C 434.415,1011.07 435.415,1013.07 435.5,1015.5C 371.444,1021.33 307.444,1020.83 243.5,1014C 217.869,1010.61 193.202,1003.95 169.5,994C 152.694,986.679 141.861,974.179 137,956.5C 135.119,938.973 140.286,923.973 152.5,911.5 Z M 657.5,922.5 C 657.56,921.957 657.893,921.624 658.5,921.5C 691.064,930.651 723.731,939.484 756.5,948C 732.004,954.25 707.337,959.75 682.5,964.5C 678.395,952.882 673.562,941.549 668,930.5C 664.932,927.265 661.432,924.598 657.5,922.5 Z M 766.5,955.5 C 765.167,957.167 763.833,958.833 762.5,960.5C 762.443,961.609 762.11,962.609 761.5,963.5C 736.496,969.343 711.496,974.343 686.5,978.5C 686.634,976.708 686.301,975.042 685.5,973.5C 689.066,972.404 692.732,971.238 696.5,970C 719.946,965.744 743.28,960.911 766.5,955.5 Z M 757.5,973.5 C 757.938,973.435 758.272,973.601 758.5,974C 755.818,981.92 754.151,990.086 753.5,998.5C 755.594,1004.97 756.761,1011.63 757,1018.5C 761.726,1025.34 766.892,1031.67 772.5,1037.5C 769.608,1042.04 767.774,1047.04 767,1052.5C 765.61,1059.17 765.11,1065.83 765.5,1072.5C 767.532,1089.31 770.032,1105.98 773,1122.5C 759,1099.83 745,1077.17 731,1054.5C 716.235,1033.31 702.735,1011.31 690.5,988.5C 690.791,987.351 691.624,986.684 693,986.5C 714.605,982.556 736.105,978.222 757.5,973.5 Z M 793.5,977.5 C 789.508,995.165 783.842,1012.17 776.5,1028.5C 774.52,1026.1 773.187,1023.27 772.5,1020C 773.697,1002.88 780.697,988.71 793.5,977.5 Z M 532.5,981.5 C 538.417,983.054 544.083,985.054 549.5,987.5C 544.611,988.412 539.611,989.412 534.5,990.5C 533.068,987.673 532.401,984.673 532.5,981.5 Z M 598.5,988.5 C 606.177,987.98 613.511,988.98 620.5,991.5C 594.497,996.335 568.33,1000.34 542,1003.5C 540.833,1003.17 539.667,1002.83 538.5,1002.5C 541.161,1001.5 543.828,1000.5 546.5,999.5C 547.386,998.675 547.719,997.675 547.5,996.5C 563.146,994.059 578.812,991.726 594.5,989.5C 595.833,989.167 597.167,988.833 598.5,988.5 Z M 524.5,999.5 C 525.833,999.5 527.167,999.5 528.5,999.5C 528.833,1001.5 529.167,1003.5 529.5,1005.5C 521.821,1006.3 514.155,1007.3 506.5,1008.5C 504.9,1008.45 503.4,1008.12 502,1007.5C 501.365,1006.03 500.531,1004.7 499.5,1003.5C 507.944,1002.01 516.278,1000.68 524.5,999.5 Z M 625.5,1000.5 C 633.838,1019.84 642.672,1038.84 652,1057.5C 656.998,1068.33 661.498,1079.33 665.5,1090.5C 665.889,1095.67 663.722,1099.01 659,1100.5C 658.333,1101.83 658.333,1103.17 659,1104.5C 660.825,1105.1 662.659,1105.77 664.5,1106.5C 664.986,1108.5 666.153,1109.83 668,1110.5C 669.406,1109.59 670.906,1108.92 672.5,1108.5C 675.862,1119.29 679.529,1129.95 683.5,1140.5C 645.084,1127.71 609.917,1109.04 578,1084.5C 578.649,1082.17 578.482,1079.83 577.5,1077.5C 568.465,1079.14 562.798,1075.48 560.5,1066.5C 563.28,1065.03 566.113,1063.69 569,1062.5C 570.203,1059.09 569.203,1056.75 566,1055.5C 563.236,1056.21 560.569,1057.21 558,1058.5C 557.5,1058.17 557,1057.83 556.5,1057.5C 554.86,1053.23 553.527,1048.9 552.5,1044.5C 559.402,1042.7 566.069,1040.2 572.5,1037C 574.075,1034.13 573.408,1031.96 570.5,1030.5C 563.207,1033.15 555.874,1035.49 548.5,1037.5C 547.576,1033.06 546.242,1028.73 544.5,1024.5C 547.378,1022.89 550.378,1021.56 553.5,1020.5C 555.167,1017.17 554.167,1015.17 550.5,1014.5C 548.05,1014.76 545.717,1015.43 543.5,1016.5C 541.889,1015.68 541.222,1014.35 541.5,1012.5C 568.915,1008.68 596.248,1004.35 623.5,999.5C 624.183,999.863 624.85,1000.2 625.5,1000.5 Z M 482.5,1004.5 C 487.704,1003.53 491.371,1005.36 493.5,1010C 488.289,1011.68 484.289,1010.34 481.5,1006C 482.056,1005.62 482.389,1005.12 482.5,1004.5 Z M 1039.5,1006.5 C 1058.9,1008.53 1078.23,1011.03 1097.5,1014C 1078.62,1038.37 1057.12,1060.2 1033,1079.5C 1032.54,1078.91 1032.37,1078.24 1032.5,1077.5C 1036.61,1054.02 1038.95,1030.35 1039.5,1006.5 Z M 457.5,1007.5 C 460.518,1007.34 463.518,1007.5 466.5,1008C 470.687,1010.8 470.354,1012.3 465.5,1012.5C 458.872,1013.81 452.205,1014.31 445.5,1014C 444.743,1012.49 443.743,1011.15 442.5,1010C 447.507,1008.89 452.507,1008.05 457.5,1007.5 Z M 529.5,1013.5 C 530.833,1013.5 532.167,1013.5 533.5,1013.5C 538.164,1029.46 543.33,1045.12 549,1060.5C 534.572,1047.24 521.406,1032.91 509.5,1017.5C 516.209,1015.72 522.876,1014.39 529.5,1013.5 Z M 1026.5,1103.5 C 1027.48,1100.24 1028.15,1096.9 1028.5,1093.5C 1058.29,1070.87 1084.63,1044.71 1107.5,1015C 1109.88,1014.91 1112.21,1015.41 1114.5,1016.5C 1090.44,1050.89 1061.11,1079.89 1026.5,1103.5 Z M 496.5,1017.5 C 498.39,1017.3 499.89,1017.96 501,1019.5C 517.248,1041.42 535.915,1061.08 557,1078.5C 559.296,1083.06 560.963,1087.73 562,1092.5C 535.592,1070.76 511.759,1046.26 490.5,1019C 492.708,1018.81 494.708,1018.31 496.5,1017.5 Z M 1130.5,1017.5 C 1138.54,1017.95 1146.54,1018.79 1154.5,1020C 1140.75,1042 1124.08,1062.5 1104.5,1081.5C 1100.04,1076.54 1095.38,1071.71 1090.5,1067C 1105.18,1051.49 1118.52,1034.99 1130.5,1017.5 Z M 1351.5,1019.5 C 1354.19,1019.34 1356.85,1019.5 1359.5,1020C 1292.54,1173.46 1181.87,1282.96 1027.5,1348.5C 1025.13,1346.6 1022.47,1346.1 1019.5,1347C 1016.28,1349.47 1013.28,1352.13 1010.5,1355C 945.207,1378.43 877.873,1390.59 808.5,1391.5C 808.5,1388.17 808.5,1384.83 808.5,1381.5C 988.209,1376.31 1136.71,1306.64 1254,1172.5C 1280.45,1140.7 1303.79,1106.7 1324,1070.5C 1332.3,1054.45 1340.13,1038.12 1347.5,1021.5C 1348.95,1020.83 1350.28,1020.16 1351.5,1019.5 Z M 466.5,1020.5 C 469.518,1020.34 472.518,1020.5 475.5,1021C 487.225,1036.9 499.892,1052.06 513.5,1066.5C 508.833,1071.5 504.167,1076.5 499.5,1081.5C 481.451,1063.62 465.451,1044.12 451.5,1023C 456.625,1022.07 461.625,1021.24 466.5,1020.5 Z M 1163.5,1020.5 C 1221.49,1025.22 1279.49,1025.56 1337.5,1021.5C 1333.98,1030.88 1330.14,1040.22 1326,1049.5C 1249.12,1196.3 1131.62,1295.8 973.5,1348C 919.733,1364.26 864.733,1372.76 808.5,1373.5C 808.5,1343.5 808.5,1313.5 808.5,1283.5C 840.684,1281.79 870.684,1272.96 898.5,1257C 932.492,1236.35 961.492,1210.02 985.5,1178C 1059.7,1142.3 1119.04,1089.8 1163.5,1020.5 Z M 522.5,1076.5 C 533.275,1085.43 543.942,1094.6 554.5,1104C 563.24,1109.41 571.406,1115.57 579,1122.5C 585.777,1134.55 592.943,1146.38 600.5,1158C 598.402,1157.97 596.402,1157.3 594.5,1156C 563.255,1137.76 534.589,1116.09 508.5,1091C 513.001,1087.46 517.167,1083.63 521,1079.5C 521.513,1078.47 522.013,1077.47 522.5,1076.5 Z M 1079.5,1076.5 C 1084.91,1081.03 1090.24,1085.87 1095.5,1091C 1015.27,1167.15 919.602,1206.99 808.5,1210.5C 808.5,1203.5 808.5,1196.5 808.5,1189.5C 900.081,1186.81 981.748,1157.31 1053.5,1101C 1062.47,1093.04 1071.14,1084.87 1079.5,1076.5 Z M 572.5,1091.5 C 575.533,1093.02 578.2,1095.02 580.5,1097.5C 579.131,1099.12 577.464,1099.62 575.5,1099C 573.798,1096.76 572.798,1094.26 572.5,1091.5 Z M 687.5,1150.5 C 688.75,1153.01 689.416,1155.67 689.5,1158.5C 650.54,1147.02 614.54,1129.68 581.5,1106.5C 583.583,1105.04 585.75,1103.71 588,1102.5C 618.742,1123.45 651.908,1139.45 687.5,1150.5 Z M 592.5,1131.5 C 592.56,1130.96 592.893,1130.62 593.5,1130.5C 596.388,1132.56 599.388,1134.4 602.5,1136C 601.315,1137.35 599.981,1138.52 598.5,1139.5C 596.491,1136.8 594.491,1134.14 592.5,1131.5 Z M 795.5,1197.5 C 790.309,1197.06 785.309,1197.56 780.5,1199C 785.211,1201.14 790.211,1201.98 795.5,1201.5C 795.5,1204.5 795.5,1207.5 795.5,1210.5C 740.619,1209.45 687.952,1198.28 637.5,1177C 636.375,1171.1 633.375,1169.6 628.5,1172.5C 625.275,1171.82 622.275,1170.65 619.5,1169C 617.673,1168.1 616.34,1166.77 615.5,1165C 617.353,1162.81 619.52,1160.98 622,1159.5C 623.5,1154.33 621.667,1152.5 616.5,1154C 614.759,1155.62 612.925,1157.12 611,1158.5C 607.921,1154.68 605.088,1150.68 602.5,1146.5C 604.618,1143.69 607.451,1142.02 611,1141.5C 619.323,1144.94 627.49,1148.78 635.5,1153C 631.663,1158.5 628.829,1164.34 627,1170.5C 631.385,1166.4 634.218,1161.4 635.5,1155.5C 636.167,1155.17 636.833,1154.83 637.5,1154.5C 687.861,1176.25 740.527,1187.92 795.5,1189.5C 795.5,1192.17 795.5,1194.83 795.5,1197.5 Z M 630.5,1183.5 C 634.515,1184.89 638.515,1186.39 642.5,1188C 643.451,1188.72 643.617,1189.55 643,1190.5C 641.511,1192.33 639.678,1193.17 637.5,1193C 634.949,1189.96 632.616,1186.79 630.5,1183.5 Z M 966.5,1185.5 C 967.043,1185.56 967.376,1185.89 967.5,1186.5C 937.446,1224.06 899.779,1250.89 854.5,1267C 839.489,1271.56 824.156,1274.06 808.5,1274.5C 808.333,1263.16 808.5,1251.83 809,1240.5C 819.332,1236.17 826.165,1228.67 829.5,1218C 877.3,1215.13 922.966,1204.3 966.5,1185.5 Z M 651.5,1191.5 C 691.091,1206.48 732.091,1215.31 774.5,1218C 776.904,1225.07 780.904,1231.07 786.5,1236C 788.871,1237.88 791.538,1239.05 794.5,1239.5C 794.667,1251.5 794.5,1263.5 794,1275.5C 790.21,1274.86 786.377,1274.2 782.5,1273.5C 783.417,1270.24 783.751,1266.91 783.5,1263.5C 781.208,1263.24 779.041,1263.58 777,1264.5C 775.851,1267.39 775.351,1270.39 775.5,1273.5C 770.744,1272.93 766.077,1271.93 761.5,1270.5C 760.143,1267.47 760.476,1264.64 762.5,1262C 758.985,1257.31 756.152,1257.81 754,1263.5C 753.506,1265.13 753.34,1266.8 753.5,1268.5C 748.677,1267.78 744.01,1266.45 739.5,1264.5C 738.369,1262.93 738.202,1261.26 739,1259.5C 741.954,1257.13 742.12,1254.63 739.5,1252C 737.299,1251.18 735.466,1251.68 734,1253.5C 733.197,1256.24 732.197,1258.91 731,1261.5C 725.958,1259.47 721.125,1256.97 716.5,1254C 719.91,1250.88 720.91,1247.22 719.5,1243C 717.741,1242.2 716.074,1242.37 714.5,1243.5C 712.8,1246.04 711.3,1248.71 710,1251.5C 706.086,1249.46 702.252,1247.29 698.5,1245C 697.483,1243.95 697.316,1242.78 698,1241.5C 701.768,1235.63 705.268,1229.63 708.5,1223.5C 708.119,1221.29 706.786,1219.96 704.5,1219.5C 699.434,1225.95 694.601,1232.62 690,1239.5C 686.043,1236.44 682.209,1233.28 678.5,1230C 680.786,1227.54 682.453,1224.71 683.5,1221.5C 682.708,1218.85 681.041,1217.68 678.5,1218C 675.979,1220.22 673.812,1222.72 672,1225.5C 667.815,1222.31 663.982,1218.81 660.5,1215C 662.333,1213.17 664.167,1211.33 666,1209.5C 667.222,1204.07 665.389,1202.24 660.5,1204C 658.321,1205.85 656.487,1208.01 655,1210.5C 651.675,1207.21 648.342,1203.88 645,1200.5C 644.333,1199.83 644.333,1199.17 645,1198.5C 647.712,1196.62 649.878,1194.29 651.5,1191.5 Z M 784.5,1218.5 C 796.167,1218.5 807.833,1218.5 819.5,1218.5C 815.336,1230.58 807.002,1234.75 794.5,1231C 789.392,1228.3 786.059,1224.13 784.5,1218.5 Z"/></g>
<g><path style="opacity:0.008" fill="#0000ff" d="M 169.5,157.5 C 170.525,157.897 170.692,158.563 170,159.5C 169.536,158.906 169.369,158.239 169.5,157.5 Z"/></g>
<g><path style="opacity:0.931" fill="#2606d8" d="M 722.5,226.5 C 744.576,228.072 753.742,239.738 750,261.5C 742.057,279.149 729.223,283.983 711.5,276C 697.241,264.461 695.075,250.961 705,235.5C 709.765,230.202 715.599,227.202 722.5,226.5 Z"/></g>
<g><path style="opacity:0.924" fill="#2606d8" d="M 643.5,242.5 C 660.257,240.614 671.091,247.614 676,263.5C 678.218,275.139 674.718,284.639 665.5,292C 644.948,301.377 630.782,295.544 623,274.5C 621.605,258.422 628.438,247.756 643.5,242.5 Z"/></g>
<g><path style="opacity:0.919" fill="#2605d8" d="M 572.5,268.5 C 589.564,267.274 600.064,274.941 604,291.5C 605.538,307.601 598.704,318.101 583.5,323C 563.926,324.044 552.592,314.877 549.5,295.5C 551.844,281.832 559.511,272.832 572.5,268.5 Z M 561.5,287.5 C 563.984,296.302 567.984,304.469 573.5,312C 564.281,310.593 559.948,305.093 560.5,295.5C 560.551,292.747 560.884,290.08 561.5,287.5 Z"/></g>
<g><path style="opacity:0.372" fill="#2002d9" d="M 831.5,272.5 C 835.473,273.075 836.473,275.242 834.5,279C 829.382,278.824 828.382,276.658 831.5,272.5 Z"/></g>
<g><path style="opacity:0.298" fill="#2002df" d="M 859.5,274.5 C 864.942,274.886 866.275,277.386 863.5,282C 857.398,282.223 856.064,279.723 859.5,274.5 Z"/></g>
<g><path style="opacity:0.454" fill="#2103d6" d="M 887.5,278.5 C 893.313,278.062 894.98,280.562 892.5,286C 885.798,286.802 884.132,284.302 887.5,278.5 Z"/></g>
<g><path style="opacity:0.466" fill="#2003de" d="M 916.5,283.5 C 919.699,283.696 921.699,285.363 922.5,288.5C 919.5,295.167 916.5,295.167 913.5,288.5C 913.757,286.308 914.757,284.641 916.5,283.5 Z"/></g>
<g><path style="opacity:0.669" fill="#2103d9" d="M 943.5,290.5 C 947.703,289.702 950.37,291.369 951.5,295.5C 949.801,300.311 946.634,301.645 942,299.5C 939.801,295.978 940.301,292.978 943.5,290.5 Z"/></g>
<g><path style="opacity:0.489" fill="#2303dc" d="M 970.5,299.5 C 976.448,298.283 978.948,300.617 978,306.5C 975.155,311.665 971.988,311.831 968.5,307C 967.422,304.063 968.089,301.563 970.5,299.5 Z"/></g>
<g><path style="opacity:0.911" fill="#2505d8" d="M 504.5,305.5 C 520.293,303.973 530.793,310.64 536,325.5C 538.027,349.898 526.86,361.064 502.5,359C 485.945,352.728 479.779,340.895 484,323.5C 488.264,314.392 495.097,308.392 504.5,305.5 Z M 496.5,320.5 C 498.017,320.511 499.184,321.177 500,322.5C 505.303,331.3 510.803,339.967 516.5,348.5C 506.27,351.921 498.437,348.921 493,339.5C 491.509,332.521 492.676,326.188 496.5,320.5 Z"/></g>
<g><path style="opacity:0.791" fill="#2304d8" d="M 997.5,308.5 C 1002.74,307.61 1005.41,309.777 1005.5,315C 1005.65,317.034 1004.98,318.701 1003.5,320C 996,321.833 993.167,319 995,311.5C 996.045,310.627 996.878,309.627 997.5,308.5 Z"/></g>
<g><path style="opacity:0.806" fill="#2304d9" d="M 1023.5,320.5 C 1028.7,319.756 1031.7,321.922 1032.5,327C 1030.24,333.977 1026.41,335.143 1021,330.5C 1019.86,326.537 1020.7,323.204 1023.5,320.5 Z"/></g>
<g><path style="opacity:0.852" fill="#2405db" d="M 1049.5,333.5 C 1055.18,333.347 1058.01,336.014 1058,341.5C 1056.34,346.038 1053.17,347.538 1048.5,346C 1043.48,341.502 1043.81,337.335 1049.5,333.5 Z"/></g>
<g><path style="opacity:0.842" fill="#2404d8" d="M 1074.5,347.5 C 1079.53,347.198 1082.53,349.531 1083.5,354.5C 1082.35,360.159 1079.02,362.325 1073.5,361C 1069.62,358.624 1068.62,355.291 1070.5,351C 1071.69,349.588 1073.02,348.421 1074.5,347.5 Z"/></g>
<g><path style="opacity:0.897" fill="#2505d8" d="M 445.5,351.5 C 467.255,353.095 476.755,364.762 474,386.5C 467.237,403.428 455.071,409.261 437.5,404C 419.882,394.031 416.049,380.198 426,362.5C 431.088,356.046 437.588,352.38 445.5,351.5 Z M 436.5,364.5 C 438.989,364.298 441.323,364.798 443.5,366C 452.032,371.9 458.032,379.734 461.5,389.5C 454.184,397.623 445.851,398.623 436.5,392.5C 430.806,387.398 428.973,381.065 431,373.5C 432.689,370.333 434.522,367.333 436.5,364.5 Z"/></g>
<g><path style="opacity:0.893" fill="#2504d7" d="M 1097.5,363.5 C 1107.15,364.301 1109.48,368.801 1104.5,377C 1096.17,379.003 1092.67,375.836 1094,367.5C 1094.69,365.65 1095.86,364.316 1097.5,363.5 Z"/></g>
<g><path style="opacity:0.874" fill="#2404d9" d="M 1120.5,380.5 C 1127.66,380.155 1130.82,383.488 1130,390.5C 1125.83,396.759 1121.17,397.092 1116,391.5C 1114.78,386.626 1116.28,382.959 1120.5,380.5 Z"/></g>
<g><path style="opacity:0.863" fill="#2404d9" d="M 1143.5,398.5 C 1151.19,399.881 1153.69,404.214 1151,411.5C 1143.92,416.685 1139.42,415.018 1137.5,406.5C 1137.65,402.357 1139.65,399.691 1143.5,398.5 Z"/></g>
<g><path style="opacity:0.878" fill="#2504d8" d="M 385.5,406.5 C 406.215,403.891 417.882,412.891 420.5,433.5C 416.561,455.813 403.561,463.98 381.5,458C 365.928,448.421 362.094,435.254 370,418.5C 373.98,412.931 379.147,408.931 385.5,406.5 Z M 386.5,416.5 C 397.522,418.923 405.356,425.257 410,435.5C 408.85,444.887 403.35,449.887 393.5,450.5C 381.23,449.315 375.063,442.649 375,430.5C 376.901,424.112 380.734,419.445 386.5,416.5 Z"/></g>
<g><path style="opacity:0.841" fill="#2404d9" d="M 1165.5,418.5 C 1170.25,419.411 1173.25,422.244 1174.5,427C 1171.75,434.042 1167.08,435.875 1160.5,432.5C 1155.95,425.606 1157.61,420.94 1165.5,418.5 Z"/></g>
<g><path style="opacity:0.794" fill="#2304d9" d="M 803.5,432.5 C 809.578,431.317 812.411,433.65 812,439.5C 809.889,443.944 806.889,444.611 803,441.5C 801.029,438.384 801.195,435.384 803.5,432.5 Z"/></g>
<g><path style="opacity:0.883" fill="#2405d7" d="M 1182.5,439.5 C 1191.28,439.775 1194.45,444.109 1192,452.5C 1182.47,458.303 1177.81,455.636 1178,444.5C 1179.19,442.503 1180.69,440.836 1182.5,439.5 Z"/></g>
<g><path style="opacity:0.992" fill="#0056c9" d="M 1010.5,777.5 C 1009.57,778.568 1009.23,779.901 1009.5,781.5C 1008.83,781.5 1008.5,781.833 1008.5,782.5C 1005.91,784.036 1004.91,786.369 1005.5,789.5C 1004.32,797.554 1002.82,805.554 1001,813.5C 1000.45,825.186 1000.78,836.853 1002,848.5C 1003.76,859.294 1007.92,868.96 1014.5,877.5C 1014.59,878.496 1014.25,879.329 1013.5,880C 943.305,902.692 872.638,922.526 801.5,939.5C 801.842,925.622 804.675,912.289 810,899.5C 819.803,883.691 831.136,869.025 844,855.5C 846.24,852.047 847.573,848.381 848,844.5C 833.333,863.167 818.667,881.833 804,900.5C 803.617,899.944 803.117,899.611 802.5,899.5C 803.167,897.833 803.833,896.167 804.5,894.5C 807.971,893.522 809.805,891.188 810,887.5C 823,871.167 836,854.833 849,838.5C 850.544,831.916 850.877,825.249 850,818.5C 846.118,805.286 841.785,792.286 837,779.5C 835.5,778 834,776.5 832.5,775C 819.508,775.293 806.508,775.293 793.5,775C 787.627,773.456 784.127,769.623 783,763.5C 782.942,753.397 781.942,743.397 780,733.5C 775.012,729.52 771.179,724.687 768.5,719C 769.047,716.783 770.047,714.783 771.5,713C 768.347,709.178 765.18,705.345 762,701.5C 762.093,697.174 762.093,692.841 762,688.5C 758.418,683.728 753.918,680.394 748.5,678.5C 745.598,675.198 743.598,671.365 742.5,667C 742.903,665.527 743.57,664.194 744.5,663C 746.811,662.764 748.811,661.931 750.5,660.5C 750.557,665.199 752.224,665.699 755.5,662C 762.827,662.147 768.16,659.147 771.5,653C 769.302,651.398 767.302,649.565 765.5,647.5C 768.086,646.52 770.753,646.187 773.5,646.5C 772.096,638.754 770.263,631.087 768,623.5C 766.738,620.243 764.738,617.577 762,615.5C 760.299,608.685 758.299,602.018 756,595.5C 753.841,605.947 754.341,616.281 757.5,626.5C 757.518,628.373 757.018,628.706 756,627.5C 747.876,610.631 745.543,592.964 749,574.5C 752.041,552.814 758.541,532.314 768.5,513C 768.272,512.601 767.938,512.435 767.5,512.5C 775.034,499.801 785.367,489.968 798.5,483C 804.751,482.765 810.751,483.931 816.5,486.5C 821.973,482.86 827.306,479.027 832.5,475C 856.01,464.655 880.344,458.821 905.5,457.5C 931.486,459.837 955.819,467.337 978.5,480C 993.079,487.576 1005.58,497.743 1016,510.5C 1021.46,523.804 1031.3,531.137 1045.5,532.5C 1045.77,534.451 1045.11,535.951 1043.5,537C 1038.36,537.537 1033.36,537.204 1028.5,536C 1032.7,541.881 1036.53,548.047 1040,554.5C 1052.93,584.243 1057.59,615.243 1054,647.5C 1048.84,664.305 1044.51,681.305 1041,698.5C 1035.5,708.669 1028.5,717.669 1020,725.5C 1018.82,743.219 1015.66,760.552 1010.5,777.5 Z M 1031.5,699.5 C 1030.34,704.495 1027.67,708.495 1023.5,711.5C 1026.17,707.492 1028.84,703.492 1031.5,699.5 Z M 992.5,798.5 C 992.363,802.876 992.196,807.209 992,811.5C 993.103,809.371 993.603,807.037 993.5,804.5C 993.495,802.304 993.162,800.304 992.5,798.5 Z M 985.5,842.5 C 985.303,838.474 983.303,836.307 979.5,836C 981.734,838.063 983.734,840.229 985.5,842.5 Z"/></g>
<g><path style="opacity:0.886" fill="#2404d9" d="M 1200.5,461.5 C 1209.15,460.986 1212.65,464.986 1211,473.5C 1205.67,480.311 1200.67,479.977 1196,472.5C 1195.33,470.5 1195.33,468.5 1196,466.5C 1197.37,464.638 1198.87,462.972 1200.5,461.5 Z"/></g>
<g><path style="opacity:0.78" fill="#2204da" d="M 707.5,461.5 C 713.816,462.149 716.15,465.482 714.5,471.5C 709.128,476.071 705.462,474.904 703.5,468C 703.895,465.14 705.228,462.973 707.5,461.5 Z"/></g>
<g><path style="opacity:0.022" fill="#000000" d="M 642.5,469.5 C 645.674,469.952 646.007,470.952 643.5,472.5C 642.614,471.675 642.281,470.675 642.5,469.5 Z"/></g>
<g><path style="opacity:0.839" fill="#2404d8" d="M 339.5,467.5 C 359.854,465.511 371.188,474.677 373.5,495C 372.122,511.584 363.122,520.418 346.5,521.5C 327.279,519.445 318.445,508.778 320,489.5C 323.073,478.952 329.573,471.619 339.5,467.5 Z M 340.5,477.5 C 354.323,475.503 362.323,481.337 364.5,495C 363.041,505.29 357.041,511.123 346.5,512.5C 332.432,509.918 326.932,501.584 330,487.5C 332.409,482.922 335.909,479.588 340.5,477.5 Z"/></g>
<g><path style="opacity:0.42" fill="#2003da" d="M 756.5,473.5 C 759.99,473.151 762.323,474.651 763.5,478C 760.167,484 756.833,484 753.5,478C 754.883,476.729 755.883,475.229 756.5,473.5 Z"/></g>
<g><path style="opacity:1" fill="#1f1fd3" d="M 877.5,472.5 C 883.488,472.664 884.821,475.164 881.5,480C 876.632,479.711 875.299,477.211 877.5,472.5 Z"/></g>
<g><path style="opacity:1" fill="#1a24d2" d="M 964.5,480.5 C 965.461,482.265 965.795,484.265 965.5,486.5C 967.833,486.5 970.167,486.5 972.5,486.5C 972.5,487.5 972.5,488.5 972.5,489.5C 967.25,488.14 964.583,490.14 964.5,495.5C 963.534,493.604 963.201,491.604 963.5,489.5C 961.167,489.5 958.833,489.5 956.5,489.5C 956.5,488.5 956.5,487.5 956.5,486.5C 958.833,486.5 961.167,486.5 963.5,486.5C 963.325,484.379 963.659,482.379 964.5,480.5 Z"/></g>
<g><path style="opacity:0.888" fill="#2404d8" d="M 1219.5,483.5 C 1227.69,484.873 1230.52,489.539 1228,497.5C 1224.76,501.249 1220.93,502.082 1216.5,500C 1210.74,493.292 1211.74,487.792 1219.5,483.5 Z"/></g>
<g><path style="opacity:0.727" fill="#2404d9" d="M 639.5,485.5 C 641.173,486.343 642.34,487.676 643,489.5C 643.497,492.146 643.664,494.813 643.5,497.5C 648.217,496.786 651.884,498.286 654.5,502C 651.211,504.209 647.544,505.042 643.5,504.5C 643.424,509.087 641.924,513.087 639,516.5C 638.333,515.833 637.667,515.167 637,514.5C 636.667,511.5 636.333,508.5 636,505.5C 633.017,504.083 629.85,503.25 626.5,503C 623.833,501.333 623.833,499.667 626.5,498C 629.817,497.502 633.15,497.335 636.5,497.5C 636.034,493.012 637.034,489.012 639.5,485.5 Z"/></g>
<g><path style="opacity:0.859" fill="#2505d9" d="M 1236.5,507.5 C 1244.37,509.287 1246.87,513.954 1244,521.5C 1240.37,525.655 1236.21,526.322 1231.5,523.5C 1228.21,519.868 1227.71,515.868 1230,511.5C 1231.79,509.372 1233.96,508.039 1236.5,507.5 Z"/></g>
<g><path style="opacity:0.004" fill="#3737ac" d="M 1214.5,516.5 C 1220.31,516.344 1220.65,517.011 1215.5,518.5C 1214.7,518.043 1214.37,517.376 1214.5,516.5 Z"/></g>
<g><path style="opacity:0.925" fill="#013c8d" d="M 767.5,512.5 C 767.938,512.435 768.272,512.601 768.5,513C 758.541,532.314 752.041,552.814 749,574.5C 745.543,592.964 747.876,610.631 756,627.5C 757.018,628.706 757.518,628.373 757.5,626.5C 754.341,616.281 753.841,605.947 756,595.5C 758.299,602.018 760.299,608.685 762,615.5C 764.738,617.577 766.738,620.243 768,623.5C 770.263,631.087 772.096,638.754 773.5,646.5C 770.753,646.187 768.086,646.52 765.5,647.5C 767.302,649.565 769.302,651.398 771.5,653C 768.16,659.147 762.827,662.147 755.5,662C 752.224,665.699 750.557,665.199 750.5,660.5C 752.5,660.5 754.5,660.5 756.5,660.5C 756.649,659.448 756.483,658.448 756,657.5C 746.11,651.609 739.11,643.276 735,632.5C 733.135,640.683 728.635,646.85 721.5,651C 719.597,651.774 717.93,651.44 716.5,650C 725.646,642.742 729.646,633.242 728.5,621.5C 726.768,598.02 730.268,575.354 739,553.5C 745.565,537.672 755.065,524.005 767.5,512.5 Z"/></g>
<g><path style="opacity:0.907" fill="#2404d9" d="M 1249.5,532.5 C 1258.74,532.925 1261.91,537.591 1259,546.5C 1252.29,552.493 1246.96,551.493 1243,543.5C 1242.11,537.981 1244.28,534.314 1249.5,532.5 Z"/></g>
<g><path style="opacity:0.012" fill="#1531c2" d="M 589.5,549.5 C 590.573,550.251 590.74,551.251 590,552.5C 588.272,551.648 588.105,550.648 589.5,549.5 Z"/></g>
<g><path style="opacity:0.016" fill="#17339e" d="M 1147.5,548.5 C 1148.17,549.167 1148.83,549.833 1149.5,550.5C 1147.4,552.273 1145.07,552.606 1142.5,551.5C 1144.03,550.237 1145.7,549.237 1147.5,548.5 Z"/></g>
<g><path style="opacity:1" fill="#1c22d2" d="M 828.5,557.5 C 830.344,559.279 831.01,561.612 830.5,564.5C 832.833,564.5 835.167,564.5 837.5,564.5C 837.5,565.5 837.5,566.5 837.5,567.5C 834.833,567.5 832.167,567.5 829.5,567.5C 828.984,575.474 828.151,575.474 827,567.5C 818.316,565.773 818.483,564.773 827.5,564.5C 827.298,562.05 827.631,559.717 828.5,557.5 Z"/></g>
<g><path style="opacity:0.929" fill="#1d20d3" d="M 1038.5,580.5 C 1039.5,580.5 1040.5,580.5 1041.5,580.5C 1041.5,583.167 1041.5,585.833 1041.5,588.5C 1049.5,589.167 1049.5,589.833 1041.5,590.5C 1041.5,592.833 1041.5,595.167 1041.5,597.5C 1040.5,597.5 1039.5,597.5 1038.5,597.5C 1038.5,595.167 1038.5,592.833 1038.5,590.5C 1030.5,589.833 1030.5,589.167 1038.5,588.5C 1038.5,585.833 1038.5,583.167 1038.5,580.5 Z"/></g>
<g><path style="opacity:0.909" fill="#2405d9" d="M 1273.5,584.5 C 1282.4,584.225 1286.07,588.392 1284.5,597C 1281.49,602.451 1277.16,603.784 1271.5,601C 1265.76,594.587 1266.42,589.087 1273.5,584.5 Z"/></g>
<g><path style="opacity:0.445" fill="#2203dc" d="M 490.5,605.5 C 495.018,606.536 496.352,609.203 494.5,613.5C 490.565,615.42 488.231,614.254 487.5,610C 487.557,607.791 488.557,606.291 490.5,605.5 Z"/></g>
<g><path style="opacity:0.485" fill="#2303d7" d="M 1090.5,605.5 C 1097.46,604.512 1099.96,607.179 1098,613.5C 1094.85,617.152 1091.85,616.819 1089,612.5C 1088.17,609.829 1088.67,607.496 1090.5,605.5 Z"/></g>
<g><path style="opacity:0.897" fill="#2505d8" d="M 1284.5,610.5 C 1294.49,612.147 1297.32,617.481 1293,626.5C 1288.06,630.603 1283.39,630.269 1279,625.5C 1276.23,618.623 1278.07,613.623 1284.5,610.5 Z"/></g>
<g><path style="opacity:0.887" fill="#2505d8" d="M 1291.5,638.5 C 1299.08,637.285 1303.41,640.451 1304.5,648C 1302.2,656.534 1297.2,658.867 1289.5,655C 1286.68,651.662 1285.85,647.829 1287,643.5C 1288.71,641.963 1290.21,640.296 1291.5,638.5 Z"/></g>
<g><path style="opacity:0.429" fill="#2203d8" d="M 1061.5,654.5 C 1066.57,655.951 1067.57,658.784 1064.5,663C 1060.53,664.417 1058.2,663.084 1057.5,659C 1058.36,656.981 1059.69,655.481 1061.5,654.5 Z"/></g>
<g><path style="opacity:0.88" fill="#2404d9" d="M 1298.5,666.5 C 1307.44,665.611 1311.61,669.611 1311,678.5C 1307.64,684.484 1302.8,685.984 1296.5,683C 1291.28,676.826 1291.94,671.326 1298.5,666.5 Z"/></g>
<g><path style="opacity:0.804" fill="#2404d8" d="M 1102.5,673.5 C 1103.83,673.5 1105.17,673.5 1106.5,673.5C 1106.84,675.854 1107.34,678.187 1108,680.5C 1110.66,677.111 1113.16,676.944 1115.5,680C 1115.01,681.982 1114.01,683.649 1112.5,685C 1114.35,686.128 1116.35,686.628 1118.5,686.5C 1119.47,691.367 1117.47,693.534 1112.5,693C 1114.11,695.228 1114.78,697.728 1114.5,700.5C 1111.82,700.327 1109.49,699.327 1107.5,697.5C 1106.7,699.078 1106.2,700.744 1106,702.5C 1104.33,703.833 1102.67,703.833 1101,702.5C 1100.8,700.744 1100.3,699.078 1099.5,697.5C 1097.38,698.946 1095.05,699.613 1092.5,699.5C 1092.08,696.675 1093.08,694.509 1095.5,693C 1086.19,689.918 1086.19,687.085 1095.5,684.5C 1091.11,677.552 1092.78,675.885 1100.5,679.5C 1101.29,677.505 1101.96,675.505 1102.5,673.5 Z"/></g>
<g><path style="opacity:0.008" fill="#364db8" d="M 565.5,678.5 C 567.975,678.747 567.975,679.413 565.5,680.5C 564.537,680.03 564.537,679.363 565.5,678.5 Z"/></g>
<g><path style="opacity:0.959" fill="#013c8d" d="M 748.5,678.5 C 753.918,680.394 758.418,683.728 762,688.5C 762.093,692.841 762.093,697.174 762,701.5C 765.18,705.345 768.347,709.178 771.5,713C 770.047,714.783 769.047,716.783 768.5,719C 771.179,724.687 775.012,729.52 780,733.5C 781.942,743.397 782.942,753.397 783,763.5C 784.127,769.623 787.627,773.456 793.5,775C 806.508,775.293 819.508,775.293 832.5,775C 834,776.5 835.5,778 837,779.5C 841.785,792.286 846.118,805.286 850,818.5C 850.877,825.249 850.544,831.916 849,838.5C 836,854.833 823,871.167 810,887.5C 809.805,891.188 807.971,893.522 804.5,894.5C 808.108,883.058 805.442,873.558 796.5,866C 790.244,863.871 784.244,861.204 778.5,858C 774.813,854.79 771.979,850.956 770,846.5C 764.366,832.029 761.533,817.029 761.5,801.5C 757.563,800.965 753.896,799.632 750.5,797.5C 748.125,802.381 744.791,806.548 740.5,810C 736.738,812.47 732.738,812.97 728.5,811.5C 733.48,807.742 737.98,803.409 742,798.5C 742.667,796.833 742.667,795.167 742,793.5C 735.645,788.143 729.645,782.477 724,776.5C 713.665,758.111 712.665,739.111 721,719.5C 728.106,706.953 736.44,695.286 746,684.5C 747.122,682.593 747.955,680.593 748.5,678.5 Z M 735.5,719.5 C 732.568,726.611 730.068,733.944 728,741.5C 725.375,756.627 730.041,768.961 742,778.5C 742.667,773.833 742.667,769.167 742,764.5C 737.273,749.657 735.107,734.657 735.5,719.5 Z M 752.5,785.5 C 752.511,787.686 753.511,788.519 755.5,788C 754.627,786.955 753.627,786.122 752.5,785.5 Z"/></g>
<g><path style="opacity:0.008" fill="#1d4bd8" d="M 600.5,685.5 C 601.789,686.637 602.789,687.97 603.5,689.5C 600.237,690.138 597.071,690.138 594,689.5C 593.985,687.209 593.818,685.042 593.5,683C 596.151,682.939 598.484,683.773 600.5,685.5 Z"/></g>
<g><path style="opacity:0.004" fill="#0000ff" d="M 600.5,685.5 C 604.292,685.726 607.959,686.56 611.5,688C 608.986,689.252 606.32,689.752 603.5,689.5C 602.789,687.97 601.789,686.637 600.5,685.5 Z"/></g>
<g><path style="opacity:0.904" fill="#2405d7" d="M 1304.5,694.5 C 1313.82,693.984 1317.65,698.317 1316,707.5C 1313.1,712.155 1308.94,713.655 1303.5,712C 1296.62,705.772 1296.95,699.939 1304.5,694.5 Z"/></g>
<g><path style="opacity:0.776" fill="#2304d8" d="M 464.5,695.5 C 467.188,696.024 468.688,697.691 469,700.5C 471.229,697.844 473.062,698.177 474.5,701.5C 474.167,702.167 473.833,702.833 473.5,703.5C 474.711,704.874 475.711,706.374 476.5,708C 475.711,709.626 474.711,711.126 473.5,712.5C 474.833,713.5 474.833,714.5 473.5,715.5C 471.994,716.747 470.494,716.747 469,715.5C 466.333,720.833 463.667,720.833 461,715.5C 459.951,716.517 458.784,716.684 457.5,716C 456.197,712.217 455.197,708.384 454.5,704.5C 455.675,704.719 456.675,704.386 457.5,703.5C 455.948,698.888 457.448,697.554 462,699.5C 462.662,698.016 463.496,696.683 464.5,695.5 Z"/></g>
<g><path style="opacity:0.858" fill="#0231bc" d="M 576.5,875.5 C 574.262,876.537 571.929,876.703 569.5,876C 549.347,869.598 529.347,862.598 509.5,855C 508.167,852 508.167,849 509.5,846C 512.817,845.502 516.15,845.335 519.5,845.5C 519.5,844.167 519.5,842.833 519.5,841.5C 515.833,841.5 512.167,841.5 508.5,841.5C 508.034,835.509 507.701,829.509 507.5,823.5C 511.167,823.5 514.833,823.5 518.5,823.5C 518.5,822.167 518.5,820.833 518.5,819.5C 514.5,819.5 510.5,819.5 506.5,819.5C 506.5,813.5 506.5,807.5 506.5,801.5C 514.183,801.477 521.85,801.143 529.5,800.5C 529.5,799.5 529.5,798.5 529.5,797.5C 521.833,797.5 514.167,797.5 506.5,797.5C 506.5,791.5 506.5,785.5 506.5,779.5C 510.167,779.5 513.833,779.5 517.5,779.5C 517.5,778.167 517.5,776.833 517.5,775.5C 513.833,775.5 510.167,775.5 506.5,775.5C 506.5,769.167 506.5,762.833 506.5,756.5C 510.167,756.5 513.833,756.5 517.5,756.5C 517.5,755.167 517.5,753.833 517.5,752.5C 514.167,752.5 510.833,752.5 507.5,752.5C 507.334,748.486 507.501,744.486 508,740.5C 509.085,739.264 509.918,737.931 510.5,736.5C 513.127,735.895 515.793,735.395 518.5,735C 519.406,733.301 519.739,731.467 519.5,729.5C 522.271,729.579 524.937,729.079 527.5,728C 530.554,725.806 533.888,724.139 537.5,723C 545.714,720.853 554.047,719.353 562.5,718.5C 578.448,721.158 593.781,725.991 608.5,733C 612.432,740.031 617.432,746.197 623.5,751.5C 627.073,758.566 631.24,765.232 636,771.5C 637.87,778.276 640.037,784.943 642.5,791.5C 641.166,797.151 640.833,802.818 641.5,808.5C 640.303,813.59 638.803,818.59 637,823.5C 632.068,833.421 626.735,843.087 621,852.5C 608.707,865.394 593.874,873.061 576.5,875.5 Z"/></g>
<g><path style="opacity:0.004" fill="#230eb2" d="M 625.5,729.5 C 625.167,729.5 624.833,729.5 624.5,729.5C 621.782,727.839 620.116,725.839 619.5,723.5C 621.903,725.236 623.903,727.236 625.5,729.5 Z"/></g>
<g><path style="opacity:0.899" fill="#2505d7" d="M 1309.5,722.5 C 1317.98,722.814 1321.48,727.147 1320,735.5C 1317.65,740.426 1313.81,742.26 1308.5,741C 1302.52,737.637 1301.02,732.803 1304,726.5C 1305.5,724.531 1307.33,723.198 1309.5,722.5 Z"/></g>
<g><path style="opacity:0.386" fill="#2103df" d="M 1137.5,726.5 C 1143.55,726.734 1145.22,729.401 1142.5,734.5C 1135.4,735.542 1133.73,732.875 1137.5,726.5 Z"/></g>
<g><path style="opacity:0.004" fill="#0000ff" d="M 624.5,729.5 C 624.833,729.5 625.167,729.5 625.5,729.5C 626.5,729.833 627.167,730.5 627.5,731.5C 625.973,731.573 624.973,730.906 624.5,729.5 Z"/></g>
<g><path style="opacity:0.004" fill="#0000ff" d="M 631.5,735.5 C 632.906,735.973 633.573,736.973 633.5,738.5C 632.094,738.027 631.427,737.027 631.5,735.5 Z"/></g>
<g><path style="opacity:0.004" fill="#0b02ef" d="M 634.5,739.5 C 638.689,742.027 641.356,745.694 642.5,750.5C 641.078,749.075 639.411,748.075 637.5,747.5C 637.461,744.465 636.461,741.798 634.5,739.5 Z"/></g>
<g><path style="opacity:0.732" fill="#0331bb" d="M 500.5,748.5 C 501.332,770.663 501.832,792.996 502,815.5C 502.402,827.871 503.235,840.204 504.5,852.5C 501.163,852.813 498.829,851.48 497.5,848.5C 485.122,832.757 479.456,814.924 480.5,795C 481.072,788.066 482.239,781.233 484,774.5C 486.914,769.346 489.248,764.012 491,758.5C 494.399,755.271 497.565,751.938 500.5,748.5 Z"/></g>
<g><path style="opacity:0.012" fill="#17329f" d="M 637.5,747.5 C 639.411,748.075 641.078,749.075 642.5,750.5C 642.539,751.756 642.039,752.756 641,753.5C 639.558,751.609 638.391,749.609 637.5,747.5 Z"/></g>
<g><path style="opacity:0.365" fill="#2102d8" d="M 1078.5,775.5 C 1085.59,777.979 1086.09,781.312 1080,785.5C 1074.68,782.874 1074.18,779.54 1078.5,775.5 Z"/></g>
<g><path style="opacity:0.576" fill="#2207da" d="M 1005.5,789.5 C 1004.91,786.369 1005.91,784.036 1008.5,782.5C 1009.17,782.5 1009.5,782.167 1009.5,781.5C 1009.23,779.901 1009.57,778.568 1010.5,777.5C 1013.95,776.134 1015.78,777.467 1016,781.5C 1018.29,782.819 1020.45,784.319 1022.5,786C 1020.75,788.259 1018.42,789.592 1015.5,790C 1015.01,792.176 1014.01,794.009 1012.5,795.5C 1010.54,793.755 1009.21,791.589 1008.5,789C 1007.42,788.53 1006.42,788.697 1005.5,789.5 Z"/></g>
<g><path style="opacity:0.03" fill="#1200dc" d="M 653.5,786.5 C 656.861,787.203 657.194,788.537 654.5,790.5C 652.358,789.563 652.024,788.23 653.5,786.5 Z"/></g>
<g><path style="opacity:0.866" fill="#2404d9" d="M 1122.5,793.5 C 1123.5,793.5 1124.5,793.5 1125.5,793.5C 1125.83,795.5 1126.17,797.5 1126.5,799.5C 1128.79,799.276 1130.95,798.609 1133,797.5C 1134.17,798.009 1135,798.842 1135.5,800C 1134.5,801.667 1133.5,803.333 1132.5,805C 1137.38,805.67 1139.05,808.17 1137.5,812.5C 1135.71,812.215 1134.05,812.548 1132.5,813.5C 1134.17,815.51 1134.84,817.843 1134.5,820.5C 1131.41,820.623 1128.75,819.623 1126.5,817.5C 1125.53,819.396 1125.2,821.396 1125.5,823.5C 1124.13,823.657 1122.79,823.49 1121.5,823C 1120.67,821.184 1119.84,819.351 1119,817.5C 1116.52,820.872 1114.02,821.038 1111.5,818C 1112.5,816.333 1113.5,814.667 1114.5,813C 1112.5,811.667 1110.5,810.333 1108.5,809C 1109.34,807.989 1109.67,806.822 1109.5,805.5C 1111.53,805.662 1113.53,805.495 1115.5,805C 1113.55,802.832 1112.88,800.498 1113.5,798C 1116.33,797.674 1119,798.174 1121.5,799.5C 1121.33,797.379 1121.66,795.379 1122.5,793.5 Z"/></g>
<g><path style="opacity:0.016" fill="#0e35c8" d="M 655.5,817.5 C 655.326,820.874 654.826,824.207 654,827.5C 653.311,828.357 652.478,829.023 651.5,829.5C 649.439,824.228 650.772,820.228 655.5,817.5 Z"/></g>
<g><path style="opacity:0.908" fill="#2405d7" d="M 1308.5,837.5 C 1319.54,838.102 1322.71,843.435 1318,853.5C 1311.84,858.134 1306.84,857.134 1303,850.5C 1301.57,844.7 1303.4,840.367 1308.5,837.5 Z"/></g>
<g><path style="opacity:0.004" fill="#1a08cf" d="M 639.5,866.5 C 640.756,866.461 641.756,866.961 642.5,868C 640.487,870.379 638.654,872.879 637,875.5C 636.052,871.903 636.885,868.903 639.5,866.5 Z"/></g>
<g><path style="opacity:0.892" fill="#2405da" d="M 1305.5,865.5 C 1313.3,866.46 1316.8,870.793 1316,878.5C 1312.61,884.467 1307.77,885.967 1301.5,883C 1295.77,875.609 1297.1,869.775 1305.5,865.5 Z"/></g>
<g><path style="opacity:0.673" fill="#0450cb" d="M 1020.5,883.5 C 1021.5,883.5 1022.5,883.5 1023.5,883.5C 1023.61,884.117 1023.94,884.617 1024.5,885C 1027.55,885.739 1030.55,886.572 1033.5,887.5C 1030.31,890.925 1026.31,892.259 1021.5,891.5C 1019.5,889.833 1017.5,888.167 1015.5,886.5C 1015.5,885.5 1015.5,884.5 1015.5,883.5C 1017.17,883.5 1018.83,883.5 1020.5,883.5 Z"/></g>
<g><path style="opacity:0.996" fill="#0253ca" d="M 1014.5,887.5 C 1015.44,889.05 1016.11,890.716 1016.5,892.5C 1016.43,894.411 1015.43,895.578 1013.5,896C 945.422,917.685 876.755,937.185 807.5,954.5C 804.402,954.756 801.402,955.422 798.5,956.5C 799.051,953.193 799.384,949.86 799.5,946.5C 797.5,946.5 795.5,946.5 793.5,946.5C 793.842,945.662 794.508,945.328 795.5,945.5C 831.037,936.533 866.703,927.699 902.5,919C 937.755,907.878 973.089,896.878 1008.5,886C 1010.84,885.252 1012.84,885.752 1014.5,887.5 Z"/></g>
<g><path style="opacity:0.98" fill="#0056c9" d="M 571.5,894.5 C 575.877,894.577 580.21,895.077 584.5,896C 593.484,899.492 602.484,902.825 611.5,906C 627.241,909.302 642.241,914.468 656.5,921.5C 656.5,922.167 656.833,922.5 657.5,922.5C 661.432,924.598 664.932,927.265 668,930.5C 673.562,941.549 678.395,952.882 682.5,964.5C 682.167,965.167 681.833,965.833 681.5,966.5C 647.273,973.211 612.939,979.378 578.5,985C 570.495,985.95 562.495,986.783 554.5,987.5C 552.833,987.5 551.167,987.5 549.5,987.5C 544.083,985.054 538.417,983.054 532.5,981.5C 531.909,980.849 531.243,980.182 530.5,979.5C 530.957,978.702 531.624,978.369 532.5,978.5C 536.931,979.47 539.265,977.803 539.5,973.5C 535.821,973.724 532.154,974.058 528.5,974.5C 526.548,968.643 525.215,962.643 524.5,956.5C 527.86,956.384 531.193,956.051 534.5,955.5C 534.5,954.167 534.5,952.833 534.5,951.5C 530.5,952.167 526.5,952.833 522.5,953.5C 521.833,947.5 521.167,941.5 520.5,935.5C 523.727,935.324 526.727,934.657 529.5,933.5C 530.5,933.5 531.5,933.5 532.5,933.5C 542.406,935.435 552.24,937.768 562,940.5C 570.771,938.079 579.604,935.912 588.5,934C 594.7,930.489 601.366,928.823 608.5,929C 597.5,922 586.5,915 575.5,908C 573.511,905.044 571.344,902.211 569,899.5C 568.24,897.019 569.074,895.353 571.5,894.5 Z"/></g>
<g><path style="opacity:0.984" fill="#013e94" d="M 801.5,939.5 C 800.688,940.993 799.355,941.66 797.5,941.5C 791.886,939.854 786.219,938.521 780.5,937.5C 780.5,936.167 780.5,934.833 780.5,933.5C 788.292,922.392 795.625,911.059 802.5,899.5C 803.117,899.611 803.617,899.944 804,900.5C 818.667,881.833 833.333,863.167 848,844.5C 847.573,848.381 846.24,852.047 844,855.5C 831.136,869.025 819.803,883.691 810,899.5C 804.675,912.289 801.842,925.622 801.5,939.5 Z"/></g>
<g><path style="opacity:0.86" fill="#2404d9" d="M 1297.5,894.5 C 1305.16,892.99 1309.83,895.99 1311.5,903.5C 1309.14,911.234 1304.14,913.734 1296.5,911C 1291.05,905.205 1291.38,899.705 1297.5,894.5 Z"/></g>
<g><path style="opacity:0.992" fill="#0155c9" d="M 1018.5,899.5 C 1019.17,899.833 1019.83,900.167 1020.5,900.5C 1025.82,913.96 1030.65,927.627 1035,941.5C 1037.56,957.07 1039.06,972.737 1039.5,988.5C 1007.84,984.44 976.178,979.607 944.5,974C 933.283,971.959 922.283,969.293 911.5,966C 908.183,965.502 904.85,965.335 901.5,965.5C 887.124,962.776 872.791,959.276 858.5,955C 853.877,954.042 849.21,953.375 844.5,953C 842.114,952.716 841.448,951.716 842.5,950C 901.553,934.707 960.22,917.873 1018.5,899.5 Z"/></g>
<g><path style="opacity:0.942" fill="#0254c9" d="M 511.5,927.5 C 512.688,928.364 513.855,929.364 515,930.5C 515.826,933.793 516.326,937.126 516.5,940.5C 518.288,952.119 520.954,963.452 524.5,974.5C 524.315,975.584 523.982,976.584 523.5,977.5C 523.167,977.5 522.833,977.5 522.5,977.5C 514.93,975.048 507.597,972.048 500.5,968.5C 496.633,961.462 491.8,955.129 486,949.5C 485.489,947.122 484.822,944.788 484,942.5C 480.73,936.96 477.73,931.293 475,925.5C 474.244,923.191 474.744,921.191 476.5,919.5C 474.914,916.659 473.08,913.993 471,911.5C 470.503,909.19 470.337,906.857 470.5,904.5C 473.425,904.46 476.091,905.293 478.5,907C 483.833,911.667 489.167,916.333 494.5,921C 500.223,923.074 505.89,925.24 511.5,927.5 Z"/></g>
<g><path style="opacity:0.02" fill="#143dd6" d="M 690.5,898.5 C 693.631,900.762 695.131,903.762 695,907.5C 692.962,904.757 691.462,901.757 690.5,898.5 Z"/></g>
<g><path style="opacity:1" fill="#1e1ed2" d="M 1014.5,877.5 C 1014.83,877.5 1015.17,877.5 1015.5,877.5C 1015.5,878.833 1015.5,880.167 1015.5,881.5C 1017.55,881.402 1019.22,882.069 1020.5,883.5C 1018.83,883.5 1017.17,883.5 1015.5,883.5C 1015.5,884.5 1015.5,885.5 1015.5,886.5C 1014.83,886.5 1014.5,886.833 1014.5,887.5C 1012.84,885.752 1010.84,885.252 1008.5,886C 973.089,896.878 937.755,907.878 902.5,919C 866.703,927.699 831.037,936.533 795.5,945.5C 793.435,942.954 790.768,941.12 787.5,940C 785.167,939.667 782.833,939.333 780.5,939C 779.733,937.53 779.067,936.03 778.5,934.5C 779.167,934.167 779.833,933.833 780.5,933.5C 780.5,934.833 780.5,936.167 780.5,937.5C 786.219,938.521 791.886,939.854 797.5,941.5C 799.355,941.66 800.688,940.993 801.5,939.5C 872.638,922.526 943.305,902.692 1013.5,880C 1014.25,879.329 1014.59,878.496 1014.5,877.5 Z"/></g>
<g><path style="opacity:0.678" fill="#2203d9" d="M 1130.5,907.5 C 1134.14,906.68 1136.48,908.013 1137.5,911.5C 1135.44,916.65 1132.6,917.317 1129,913.5C 1128.25,911.16 1128.75,909.16 1130.5,907.5 Z"/></g>
<g><path style="opacity:0.505" fill="#2303da" d="M 1064.5,907.5 C 1068.07,907.759 1069.4,909.759 1068.5,913.5C 1073.5,912.5 1075.5,914.5 1074.5,919.5C 1072.5,919.833 1070.5,920.167 1068.5,920.5C 1068.74,924.527 1067.07,925.861 1063.5,924.5C 1062.69,922.929 1062.36,921.262 1062.5,919.5C 1060.83,919.5 1059.17,919.5 1057.5,919.5C 1057.5,917.5 1057.5,915.5 1057.5,913.5C 1061.66,913.675 1063.99,911.675 1064.5,907.5 Z"/></g>
<g><path style="opacity:0.008" fill="#2b4fd6" d="M 1111.5,914.5 C 1112.26,917.072 1111.42,919.405 1109,921.5C 1108.93,918.887 1109.76,916.554 1111.5,914.5 Z"/></g>
<g><path style="opacity:0.902" fill="#2405d8" d="M 1290.5,922.5 C 1300.66,921.829 1304.49,926.496 1302,936.5C 1296.88,941.767 1291.88,941.767 1287,936.5C 1284.44,930.799 1285.6,926.132 1290.5,922.5 Z"/></g>
<g><path style="opacity:1" fill="#1e1fd3" d="M 1016.5,892.5 C 1017.17,892.5 1017.83,892.5 1018.5,892.5C 1016.08,894.94 1016.08,897.274 1018.5,899.5C 960.22,917.873 901.553,934.707 842.5,950C 841.448,951.716 842.114,952.716 844.5,953C 849.21,953.375 853.877,954.042 858.5,955C 872.791,959.276 887.124,962.776 901.5,965.5C 896.188,964.891 890.854,964.391 885.5,964C 880.292,962.358 874.959,961.358 869.5,961C 859.464,956.155 848.797,953.655 837.5,953.5C 837.5,952.167 837.5,950.833 837.5,949.5C 827.632,951.46 817.632,953.127 807.5,954.5C 876.755,937.185 945.422,917.685 1013.5,896C 1015.43,895.578 1016.43,894.411 1016.5,892.5 Z"/></g>
<g><path style="opacity:1" fill="#2118d5" d="M 961.5,937.5 C 968.004,937.138 969.671,939.638 966.5,945C 960.785,945.401 959.119,942.901 961.5,937.5 Z"/></g>
<g><path style="opacity:0.968" fill="#023a8f" d="M 793.5,946.5 C 795.5,946.5 797.5,946.5 799.5,946.5C 799.384,949.86 799.051,953.193 798.5,956.5C 791.272,957.38 784.272,959.213 777.5,962C 772.844,962.665 768.177,963.165 763.5,963.5C 763.737,962.209 763.404,961.209 762.5,960.5C 763.833,958.833 765.167,957.167 766.5,955.5C 767.936,954.571 769.269,953.405 770.5,952C 778.197,949.992 785.863,948.158 793.5,946.5 Z"/></g>
<g><path style="opacity:0.004" fill="#0000ff" d="M 1053.5,951.5 C 1055.08,952.002 1055.58,953.002 1055,954.5C 1053.96,953.756 1053.46,952.756 1053.5,951.5 Z"/></g>
<g><path style="opacity:0.887" fill="#2405da" d="M 1282.5,949.5 C 1293.06,949.725 1296.4,954.725 1292.5,964.5C 1284.81,970.215 1279.48,968.381 1276.5,959C 1276.73,954.625 1278.73,951.458 1282.5,949.5 Z"/></g>
<g><path style="opacity:1" fill="#1c21cb" d="M 807.5,954.5 C 804.437,955.699 801.437,957.199 798.5,959C 804.479,958.67 810.479,958.67 816.5,959C 829.886,963.239 843.553,966.239 857.5,968C 864.358,969.898 871.024,972.064 877.5,974.5C 854.14,970.594 830.973,965.594 808,959.5C 799.878,960.564 792.045,962.231 784.5,964.5C 780.392,966.058 776.059,966.724 771.5,966.5C 768.061,965.981 764.728,964.981 761.5,963.5C 762.11,962.609 762.443,961.609 762.5,960.5C 763.404,961.209 763.737,962.209 763.5,963.5C 768.177,963.165 772.844,962.665 777.5,962C 784.272,959.213 791.272,957.38 798.5,956.5C 801.402,955.422 804.402,954.756 807.5,954.5 Z"/></g>
<g><path style="opacity:0.994" fill="#0056c9" d="M 877.5,974.5 C 896.213,979.345 915.213,983.512 934.5,987C 962.555,991.565 990.555,996.565 1018.5,1002C 1024.84,1002.6 1031.17,1003.27 1037.5,1004C 1038.38,1004.71 1039.05,1005.54 1039.5,1006.5C 1038.95,1030.35 1036.61,1054.02 1032.5,1077.5C 1031.38,1079.74 1030.21,1082.07 1029,1084.5C 1025.98,1086.7 1023.14,1089.03 1020.5,1091.5C 934.723,1150.77 839.723,1172.61 735.5,1157C 725.401,1153.69 715.068,1151.36 704.5,1150C 698.226,1148.44 692.226,1146.27 686.5,1143.5C 685.272,1142.69 684.272,1141.69 683.5,1140.5C 679.529,1129.95 675.862,1119.29 672.5,1108.5C 671.927,1105.85 671.26,1103.19 670.5,1100.5C 669.127,1096.97 667.461,1093.63 665.5,1090.5C 661.498,1079.33 656.998,1068.33 652,1057.5C 642.672,1038.84 633.838,1019.84 625.5,1000.5C 625.5,999.5 625.5,998.5 625.5,997.5C 632.185,996.688 638.851,995.688 645.5,994.5C 647.03,994.36 648.03,993.693 648.5,992.5C 661.462,991.276 674.295,989.276 687,986.5C 688.434,986.862 689.601,987.528 690.5,988.5C 702.735,1011.31 716.235,1033.31 731,1054.5C 745,1077.17 759,1099.83 773,1122.5C 770.032,1105.98 767.532,1089.31 765.5,1072.5C 765.11,1065.83 765.61,1059.17 767,1052.5C 767.774,1047.04 769.608,1042.04 772.5,1037.5C 775.706,1035.42 777.039,1032.42 776.5,1028.5C 783.842,1012.17 789.508,995.165 793.5,977.5C 796.678,972.945 797.678,967.945 796.5,962.5C 792.712,964.256 788.712,964.922 784.5,964.5C 792.045,962.231 799.878,960.564 808,959.5C 830.973,965.594 854.14,970.594 877.5,974.5 Z"/></g>
<g><path style="opacity:0.752" fill="#2303d6" d="M 483.5,958.5 C 490.57,959.407 492.237,962.907 488.5,969C 484.202,970.46 481.202,969.126 479.5,965C 480.234,962.439 481.567,960.273 483.5,958.5 Z"/></g>
<g><path style="opacity:1" fill="#1e20d3" d="M 529.5,933.5 C 526.727,934.657 523.727,935.324 520.5,935.5C 521.167,941.5 521.833,947.5 522.5,953.5C 526.5,952.833 530.5,952.167 534.5,951.5C 534.5,952.833 534.5,954.167 534.5,955.5C 531.193,956.051 527.86,956.384 524.5,956.5C 525.215,962.643 526.548,968.643 528.5,974.5C 532.154,974.058 535.821,973.724 539.5,973.5C 539.265,977.803 536.931,979.47 532.5,978.5C 531.526,976.915 530.026,975.915 528,975.5C 527.381,972.968 526.381,970.635 525,968.5C 524.812,970.476 524.979,972.476 525.5,974.5C 525.36,976.03 524.693,977.03 523.5,977.5C 523.982,976.584 524.315,975.584 524.5,974.5C 520.954,963.452 518.288,952.119 516.5,940.5C 518.308,939.082 518.975,937.082 518.5,934.5C 522.154,934.058 525.821,933.724 529.5,933.5 Z"/></g>
<g><path style="opacity:0.939" fill="#023c8e" d="M 793.5,977.5 C 780.697,988.71 773.697,1002.88 772.5,1020C 773.187,1023.27 774.52,1026.1 776.5,1028.5C 777.039,1032.42 775.706,1035.42 772.5,1037.5C 766.892,1031.67 761.726,1025.34 757,1018.5C 756.761,1011.63 755.594,1004.97 753.5,998.5C 754.151,990.086 755.818,981.92 758.5,974C 758.272,973.601 757.938,973.435 757.5,973.5C 761.276,969.389 765.942,967.056 771.5,966.5C 776.059,966.724 780.392,966.058 784.5,964.5C 788.712,964.922 792.712,964.256 796.5,962.5C 797.678,967.945 796.678,972.945 793.5,977.5 Z"/></g>
<g><path style="opacity:0.48" fill="#2002d7" d="M 1113.5,967.5 C 1117.16,966.995 1119.5,968.495 1120.5,972C 1118.17,977.136 1115.34,977.636 1112,973.5C 1111.25,971.16 1111.75,969.16 1113.5,967.5 Z"/></g>
<g><path style="opacity:0.967" fill="#0353ca" d="M 683.5,971.5 C 684.167,972.167 684.833,972.833 685.5,973.5C 686.301,975.042 686.634,976.708 686.5,978.5C 686.5,979.5 686.5,980.5 686.5,981.5C 682.462,981.958 678.462,982.624 674.5,983.5C 657.494,986.406 640.494,989.406 623.5,992.5C 622.391,992.443 621.391,992.11 620.5,991.5C 613.511,988.98 606.177,987.98 598.5,988.5C 598.881,987.069 599.881,986.236 601.5,986C 625.609,981.949 649.609,977.282 673.5,972C 676.817,971.502 680.15,971.335 683.5,971.5 Z"/></g>
<g><path style="opacity:0.616" fill="#230ad7" d="M 761.5,963.5 C 764.728,964.981 768.061,965.981 771.5,966.5C 765.942,967.056 761.276,969.389 757.5,973.5C 736.105,978.222 714.605,982.556 693,986.5C 691.624,986.684 690.791,987.351 690.5,988.5C 689.601,987.528 688.434,986.862 687,986.5C 674.295,989.276 661.462,991.276 648.5,992.5C 646.801,992.66 645.134,992.494 643.5,992C 645.377,990.815 647.377,989.815 649.5,989C 658.248,988.459 666.581,986.626 674.5,983.5C 678.462,982.624 682.462,981.958 686.5,981.5C 686.5,980.5 686.5,979.5 686.5,978.5C 711.496,974.343 736.496,969.343 761.5,963.5 Z"/></g>
<g><path style="opacity:1" fill="#1d21d3" d="M 681.5,966.5 C 681.831,968.322 682.498,969.989 683.5,971.5C 680.15,971.335 676.817,971.502 673.5,972C 649.609,977.282 625.609,981.949 601.5,986C 599.881,986.236 598.881,987.069 598.5,988.5C 597.167,988.833 595.833,989.167 594.5,989.5C 591.275,988.511 587.941,987.511 584.5,986.5C 574.376,988.263 564.376,988.596 554.5,987.5C 562.495,986.783 570.495,985.95 578.5,985C 612.939,979.378 647.273,973.211 681.5,966.5 Z"/></g>
<g><path style="opacity:0.877" fill="#2404d8" d="M 1272.5,976.5 C 1279.09,976.099 1283.09,979.099 1284.5,985.5C 1283.16,992.842 1278.82,995.675 1271.5,994C 1264.64,987.676 1264.98,981.843 1272.5,976.5 Z"/></g>
<g><path style="opacity:1" fill="#192cd1" d="M 674.5,983.5 C 666.581,986.626 658.248,988.459 649.5,989C 647.377,989.815 645.377,990.815 643.5,992C 645.134,992.494 646.801,992.66 648.5,992.5C 648.03,993.693 647.03,994.36 645.5,994.5C 638.851,995.688 632.185,996.688 625.5,997.5C 629.221,996.31 632.887,994.81 636.5,993C 631.988,993.127 627.655,992.96 623.5,992.5C 640.494,989.406 657.494,986.406 674.5,983.5 Z"/></g>
<g><path style="opacity:0.884" fill="#2505d8" d="M 1247.5,1028.5 C 1254.59,1027.75 1258.59,1030.92 1259.5,1038C 1255.68,1046.5 1250.18,1048 1243,1042.5C 1240.25,1036.36 1241.75,1031.69 1247.5,1028.5 Z"/></g>
<g><path style="opacity:0.495" fill="#2102db" d="M 606.5,1032.5 C 611.459,1031.63 613.625,1033.63 613,1038.5C 610.718,1042.04 608.051,1042.37 605,1039.5C 604.167,1036.83 604.667,1034.5 606.5,1032.5 Z"/></g>
<g><path style="opacity:1" fill="#1f1fd3" d="M 697.5,1031.5 C 702.501,1030.67 704.668,1032.67 704,1037.5C 703.196,1038.8 702.029,1039.47 700.5,1039.5C 698.865,1038.95 697.199,1038.62 695.5,1038.5C 695.166,1035.81 695.832,1033.48 697.5,1031.5 Z"/></g>
<g><path style="opacity:1" fill="#1928d2" d="M 1013.5,1031.5 C 1014.5,1031.5 1015.5,1031.5 1016.5,1031.5C 1016.08,1033.75 1015.42,1035.91 1014.5,1038C 1016.18,1039.99 1017.51,1042.16 1018.5,1044.5C 1016.32,1044.41 1014.32,1043.75 1012.5,1042.5C 1010.25,1043.12 1008.58,1044.46 1007.5,1046.5C 1007.17,1046 1006.83,1045.5 1006.5,1045C 1007.39,1043.6 1008.06,1042.1 1008.5,1040.5C 1007.21,1038.84 1005.88,1037.17 1004.5,1035.5C 1004.83,1035.17 1005.17,1034.83 1005.5,1034.5C 1009.68,1037.6 1012.35,1036.6 1013.5,1031.5 Z"/></g>
<g><path style="opacity:0.822" fill="#2404d8" d="M 371.5,1037.5 C 394.745,1039.23 404.911,1051.57 402,1074.5C 394.152,1094.18 380.318,1100.34 360.5,1093C 344.269,1081.01 341.103,1066.17 351,1048.5C 356.873,1042.82 363.706,1039.15 371.5,1037.5 Z M 368.5,1048.5 C 377.978,1046.69 385.478,1050.03 391,1058.5C 394.912,1070.11 391.412,1078.61 380.5,1084C 365.683,1086.84 357.349,1080.84 355.5,1066C 355.888,1060.89 357.888,1056.56 361.5,1053C 364.239,1051.97 366.572,1050.47 368.5,1048.5 Z"/></g>
<g><path style="opacity:0.892" fill="#2304d8" d="M 1232.5,1053.5 C 1241.71,1053.21 1245.21,1057.54 1243,1066.5C 1238,1071.83 1233,1071.83 1228,1066.5C 1226.07,1061.02 1227.57,1056.68 1232.5,1053.5 Z"/></g>
<g><path style="opacity:0.887" fill="#2404d7" d="M 1215.5,1077.5 C 1227.57,1077.4 1230.57,1082.57 1224.5,1093C 1214.87,1096.03 1210.7,1092.53 1212,1082.5C 1213,1080.68 1214.16,1079.01 1215.5,1077.5 Z"/></g>
<g><path style="opacity:0.994" fill="#0253ca" d="M 1028.5,1093.5 C 1028.15,1096.9 1027.48,1100.24 1026.5,1103.5C 1025.3,1105.39 1023.97,1107.23 1022.5,1109C 997.03,1125.57 970.363,1139.73 942.5,1151.5C 883.082,1173.4 821.749,1181.4 758.5,1175.5C 736.077,1173.32 714.244,1168.65 693,1161.5C 691.826,1160.46 690.659,1159.46 689.5,1158.5C 689.416,1155.67 688.75,1153.01 687.5,1150.5C 687.5,1150.17 687.5,1149.83 687.5,1149.5C 743.786,1166.8 801.119,1170.97 859.5,1162C 888.107,1156.85 916.107,1149.18 943.5,1139C 957.728,1132.19 972.062,1125.52 986.5,1119C 998.264,1111.73 1009.6,1103.89 1020.5,1095.5C 1022.2,1095.31 1023.53,1094.48 1024.5,1093C 1026.07,1092.24 1027.4,1092.4 1028.5,1093.5 Z"/></g>
<g><path style="opacity:0.445" fill="#2305d8" d="M 665.5,1090.5 C 667.461,1093.63 669.127,1096.97 670.5,1100.5C 671.26,1103.19 671.927,1105.85 672.5,1108.5C 670.906,1108.92 669.406,1109.59 668,1110.5C 666.153,1109.83 664.986,1108.5 664.5,1106.5C 662.659,1105.77 660.825,1105.1 659,1104.5C 658.333,1103.17 658.333,1101.83 659,1100.5C 663.722,1099.01 665.889,1095.67 665.5,1090.5 Z"/></g>
<g><path style="opacity:0.852" fill="#2405d9" d="M 1198.5,1100.5 C 1207.8,1100.29 1211.3,1104.63 1209,1113.5C 1205.74,1116.43 1201.91,1117.26 1197.5,1116C 1192.16,1110.5 1192.49,1105.33 1198.5,1100.5 Z"/></g>
<g><path style="opacity:1" fill="#2118d4" d="M 966.5,1102.5 C 971.255,1102.16 972.588,1104.16 970.5,1108.5C 968.955,1109.45 967.288,1109.79 965.5,1109.5C 965.298,1107.05 965.631,1104.72 966.5,1102.5 Z"/></g>
<g><path style="opacity:0.869" fill="#2404d9" d="M 422.5,1103.5 C 445.166,1108.34 453.666,1122 448,1144.5C 440.435,1159.86 428.268,1165.36 411.5,1161C 391.505,1150.49 387.005,1135.33 398,1115.5C 404.489,1107.84 412.655,1103.84 422.5,1103.5 Z M 416.5,1115.5 C 427.928,1113.87 435.595,1118.37 439.5,1129C 435.349,1140.98 427.015,1148.15 414.5,1150.5C 402.218,1143.18 399.718,1133.51 407,1121.5C 409.843,1118.84 413.009,1116.84 416.5,1115.5 Z"/></g>
<g><path style="opacity:0.864" fill="#2404d9" d="M 1180.5,1122.5 C 1190.03,1122.24 1193.2,1126.57 1190,1135.5C 1183.14,1141.11 1178.31,1139.61 1175.5,1131C 1176.05,1127.39 1177.72,1124.55 1180.5,1122.5 Z"/></g>
<g><path style="opacity:1" fill="#1e20d3" d="M 1020.5,1091.5 C 1019.86,1092.48 1019.19,1093.48 1018.5,1094.5C 1018.96,1095.3 1019.62,1095.63 1020.5,1095.5C 1009.6,1103.89 998.264,1111.73 986.5,1119C 972.062,1125.52 957.728,1132.19 943.5,1139C 916.107,1149.18 888.107,1156.85 859.5,1162C 801.119,1170.97 743.786,1166.8 687.5,1149.5C 687.539,1148.42 687.873,1147.42 688.5,1146.5C 687.807,1145.48 687.141,1144.48 686.5,1143.5C 692.226,1146.27 698.226,1148.44 704.5,1150C 715.068,1151.36 725.401,1153.69 735.5,1157C 839.723,1172.61 934.723,1150.77 1020.5,1091.5 Z"/></g>
<g><path style="opacity:0.884" fill="#2404d9" d="M 1161.5,1143.5 C 1166.39,1142.86 1169.55,1144.86 1171,1149.5C 1171.66,1157.17 1168.16,1160.34 1160.5,1159C 1153.71,1153.33 1154.05,1148.17 1161.5,1143.5 Z"/></g>
<g><path style="opacity:0.846" fill="#2404d8" d="M 1139.5,1163.5 C 1147.6,1162.77 1151.1,1166.44 1150,1174.5C 1147.05,1178.28 1143.21,1179.44 1138.5,1178C 1134.27,1172.81 1134.6,1167.98 1139.5,1163.5 Z"/></g>
<g><path style="opacity:0.012" fill="#274aa9" d="M 1208.5,1163.5 C 1211.73,1166.63 1213.89,1170.3 1215,1174.5C 1211.75,1171.43 1209.58,1167.76 1208.5,1163.5 Z"/></g>
<g><path style="opacity:1" fill="#1d21d3" d="M 942.5,1151.5 C 922.07,1161.71 900.403,1168.88 877.5,1173C 839.034,1178.48 800.368,1179.81 761.5,1177C 760.263,1176.77 759.263,1176.27 758.5,1175.5C 821.749,1181.4 883.082,1173.4 942.5,1151.5 Z"/></g>
<g><path style="opacity:0.915" fill="#2505d8" d="M 471.5,1163.5 C 489.758,1161.94 501.258,1169.94 506,1187.5C 506.346,1211.49 494.846,1222.66 471.5,1221C 454.034,1215.58 446.534,1203.75 449,1185.5C 452.723,1174.28 460.223,1166.94 471.5,1163.5 Z M 473.5,1174.5 C 479.818,1173.67 485.484,1175.17 490.5,1179C 491.059,1179.72 491.392,1180.56 491.5,1181.5C 487.339,1193.49 479.505,1202.16 468,1207.5C 456.659,1199.29 455.493,1189.96 464.5,1179.5C 467.479,1177.63 470.479,1175.97 473.5,1174.5 Z"/></g>
<g><path style="opacity:0.856" fill="#2404d8" d="M 1119.5,1181.5 C 1128.35,1183.69 1130.35,1188.53 1125.5,1196C 1117.24,1198.72 1113.41,1195.88 1114,1187.5C 1115.36,1184.98 1117.19,1182.98 1119.5,1181.5 Z"/></g>
<g><path style="opacity:0.067" fill="#0c40ba" d="M 874.5,1189.5 C 876.665,1189.12 878.332,1189.78 879.5,1191.5C 876.807,1193.27 873.807,1193.94 870.5,1193.5C 870.5,1192.5 870.5,1191.5 870.5,1190.5C 872.099,1190.77 873.432,1190.43 874.5,1189.5 Z"/></g>
<g><path style="opacity:0.027" fill="#193aa9" d="M 857.5,1194.5 C 858.774,1195.19 858.774,1196.02 857.5,1197C 855.272,1197.82 853.272,1197.49 851.5,1196C 853.708,1195.81 855.708,1195.31 857.5,1194.5 Z"/></g>
<g><path style="opacity:0.307" fill="#0550c5" d="M 795.5,1197.5 C 796.686,1198.71 796.686,1200.04 795.5,1201.5C 790.211,1201.98 785.211,1201.14 780.5,1199C 785.309,1197.56 790.309,1197.06 795.5,1197.5 Z"/></g>
<g><path style="opacity:0.771" fill="#2404d9" d="M 1095.5,1199.5 C 1104.13,1200.5 1106.46,1205 1102.5,1213C 1096.11,1215.8 1092.11,1213.8 1090.5,1207C 1091.31,1203.86 1092.98,1201.36 1095.5,1199.5 Z"/></g>
<g><path style="opacity:0.004" fill="#0000ec" d="M 435.5,1213.5 C 438.382,1216.39 438.048,1216.89 434.5,1215C 435.056,1214.62 435.389,1214.12 435.5,1213.5 Z"/></g>
<g><path style="opacity:0.906" fill="#2505d8" d="M 534.5,1214.5 C 560.45,1214.07 571.95,1226.74 569,1252.5C 560.162,1271.5 545.996,1277 526.5,1269C 508.079,1253.68 507.079,1237.34 523.5,1220C 527.259,1218.12 530.925,1216.29 534.5,1214.5 Z M 536.5,1225.5 C 540.637,1225.15 544.637,1225.65 548.5,1227C 542.961,1234.58 537.794,1242.41 533,1250.5C 529.136,1257.43 526.136,1257.1 524,1249.5C 521.081,1237.67 525.248,1229.67 536.5,1225.5 Z"/></g>
<g><path style="opacity:0.884" fill="#2404d9" d="M 1072.5,1215.5 C 1079.95,1216.4 1082.29,1220.4 1079.5,1227.5C 1073.57,1232.31 1069.57,1230.98 1067.5,1223.5C 1067.71,1219.8 1069.38,1217.14 1072.5,1215.5 Z"/></g>
<g><path style="opacity:0.846" fill="#2304d8" d="M 1048.5,1230.5 C 1055.91,1232.47 1057.57,1236.64 1053.5,1243C 1047.79,1245.98 1044.13,1244.31 1042.5,1238C 1042.93,1234.09 1044.93,1231.59 1048.5,1230.5 Z"/></g>
<g><path style="opacity:0.886" fill="#2405d8" d="M 1019.5,1245.5 C 1028.6,1244.22 1031.27,1247.72 1027.5,1256C 1022.28,1258.49 1018.94,1256.82 1017.5,1251C 1018.08,1249.1 1018.74,1247.27 1019.5,1245.5 Z"/></g>
<g><path style="opacity:0.929" fill="#2605d8" d="M 607.5,1255.5 C 630.928,1255.98 641.761,1267.98 640,1291.5C 633.933,1309.11 621.766,1316.28 603.5,1313C 582.572,1303.1 577.406,1287.94 588,1267.5C 593.253,1261.3 599.753,1257.3 607.5,1255.5 Z M 604.5,1267.5 C 605.376,1267.37 606.043,1267.7 606.5,1268.5C 600.801,1275.57 596.968,1283.57 595,1292.5C 591.339,1281.43 594.505,1273.1 604.5,1267.5 Z"/></g>
<g><path style="opacity:0.206" fill="#2002d6" d="M 494.5,1255.5 C 497.946,1256.61 499.946,1258.95 500.5,1262.5C 498.833,1262.5 497.167,1262.5 495.5,1262.5C 495.007,1260.19 494.674,1257.86 494.5,1255.5 Z"/></g>
<g><path style="opacity:0.785" fill="#2204d6" d="M 994.5,1256.5 C 1002.74,1256.23 1005.08,1259.73 1001.5,1267C 996.316,1269.57 992.983,1268.07 991.5,1262.5C 991.984,1260.2 992.984,1258.2 994.5,1256.5 Z"/></g>
<g><path style="opacity:0.575" fill="#2203d9" d="M 967.5,1267.5 C 969.527,1267.34 971.527,1267.5 973.5,1268C 977.549,1271.67 977.216,1275 972.5,1278C 969.196,1279.04 967.029,1277.88 966,1274.5C 965.761,1272.04 966.261,1269.71 967.5,1267.5 Z"/></g>
<g><path style="opacity:0.418" fill="#2103d9" d="M 940.5,1276.5 C 947.512,1276.35 949.512,1279.35 946.5,1285.5C 938.411,1286.78 936.411,1283.78 940.5,1276.5 Z"/></g>
<g><path style="opacity:0.012" fill="#0000ff" d="M 794.5,1283.5 C 795.833,1343.5 795.833,1403.5 794.5,1463.5C 794.832,1423 794.499,1382.66 793.5,1342.5C 794.726,1338.18 794.726,1333.84 793.5,1329.5C 794.496,1314.34 794.83,1299.01 794.5,1283.5 Z"/></g>
<g><path style="opacity:0.444" fill="#2002db" d="M 914.5,1283.5 C 919.151,1284.24 920.651,1286.91 919,1291.5C 914.859,1294.58 912.026,1293.58 910.5,1288.5C 911.127,1286.21 912.46,1284.55 914.5,1283.5 Z"/></g>
<g><path style="opacity:0.913" fill="#2606d8" d="M 680.5,1286.5 C 688.704,1285.46 696.371,1286.96 703.5,1291C 708.081,1296.07 712.747,1300.9 717.5,1305.5C 716.624,1306.25 715.624,1306.75 714.5,1307C 718.781,1325.09 712.114,1337.43 694.5,1344C 676.782,1346.4 664.949,1339.23 659,1322.5C 656.092,1304.83 663.259,1292.83 680.5,1286.5 Z"/></g>
<g><path style="opacity:0.62" fill="#2303db" d="M 886.5,1289.5 C 891.19,1291.07 892.19,1293.9 889.5,1298C 885.872,1299.32 883.539,1298.15 882.5,1294.5C 883.16,1292.19 884.493,1290.52 886.5,1289.5 Z"/></g>
<g><path style="opacity:0.411" fill="#2002d8" d="M 856.5,1294.5 C 862.704,1294.31 864.037,1296.81 860.5,1302C 859.101,1302.59 857.768,1302.43 856.5,1301.5C 855.286,1299.14 855.286,1296.81 856.5,1294.5 Z"/></g>
<g><path style="opacity:0.4" fill="#2102dd" d="M 828.5,1297.5 C 832.068,1297.76 833.401,1299.76 832.5,1303.5C 827.74,1303.8 826.406,1301.8 828.5,1297.5 Z"/></g>
<g><path style="opacity:0.927" fill="#2606d8" d="M 793.5,1329.5 C 794.726,1333.84 794.726,1338.18 793.5,1342.5C 789.429,1356.21 780.095,1363.21 765.5,1363.5C 748.306,1361.81 738.973,1352.31 737.5,1335C 739.214,1320.22 747.214,1310.88 761.5,1307C 778.374,1305.71 789.04,1313.21 793.5,1329.5 Z"/></g>
<g><path style="opacity:0.148" fill="#1044c0" d="M 1018.5,1320.5 C 1022.07,1319.91 1024.07,1321.41 1024.5,1325C 1022.98,1326.33 1021.31,1326.16 1019.5,1324.5C 1018.57,1323.31 1018.24,1321.98 1018.5,1320.5 Z"/></g>
<g><path style="opacity:0.027" fill="#173fb8" d="M 1109.5,1476.5 C 1111.89,1475.33 1113.89,1476 1115.5,1478.5C 1112.74,1479.98 1110.74,1479.31 1109.5,1476.5 Z"/></g>
<g><path style="opacity:0.927" fill="#2606d8" d="M 731.5,1478.5 C 733.39,1478.3 734.89,1478.96 736,1480.5C 732.861,1513.63 745.694,1538.13 774.5,1554C 815.357,1566.96 845.19,1554.46 864,1516.5C 867.178,1505.33 868.178,1494 867,1482.5C 869.319,1480.06 871.819,1479.9 874.5,1482C 892.365,1508.74 896.198,1537.57 886,1568.5C 871.523,1600.24 847.189,1619.57 813,1626.5C 802.048,1624.86 790.881,1623.69 779.5,1623C 756.683,1617.17 738.517,1604.67 725,1585.5C 706.554,1553.42 705.887,1521.09 723,1488.5C 724.978,1484.36 727.811,1481.03 731.5,1478.5 Z"/></g>
</svg>
